<svg width="149" height="149" viewBox="0 0 149 149" fill="none" xmlns="http://www.w3.org/2000/svg">
<path d="M5.95998 0.894043H0.893982V5.96004H5.95998V0.894043Z" fill="#141414"/>
<path d="M11.026 0.894043H5.96002V5.96004H11.026V0.894043Z" fill="#141414"/>
<path d="M16.092 0.894043H11.026V5.96004H16.092V0.894043Z" fill="#141414"/>
<path d="M21.158 0.894043H16.092V5.96004H21.158V0.894043Z" fill="#141414"/>
<path d="M26.224 0.894043H21.158V5.96004H26.224V0.894043Z" fill="#141414"/>
<path d="M31.29 0.894043H26.224V5.96004H31.29V0.894043Z" fill="#141414"/>
<path d="M36.356 0.894043H31.29V5.96004H36.356V0.894043Z" fill="#141414"/>
<path d="M46.488 0.894043H41.422V5.96004H46.488V0.894043Z" fill="#141414"/>
<path d="M51.554 0.894043H46.488V5.96004H51.554V0.894043Z" fill="#141414"/>
<path d="M61.686 0.894043H56.62V5.96004H61.686V0.894043Z" fill="#141414"/>
<path d="M66.752 0.894043H61.686V5.96004H66.752V0.894043Z" fill="#141414"/>
<path d="M117.412 0.894043H112.346V5.96004H117.412V0.894043Z" fill="#141414"/>
<path d="M122.478 0.894043H117.412V5.96004H122.478V0.894043Z" fill="#141414"/>
<path d="M127.544 0.894043H122.478V5.96004H127.544V0.894043Z" fill="#141414"/>
<path d="M132.61 0.894043H127.544V5.96004H132.61V0.894043Z" fill="#141414"/>
<path d="M137.676 0.894043H132.61V5.96004H137.676V0.894043Z" fill="#141414"/>
<path d="M142.742 0.894043H137.676V5.96004H142.742V0.894043Z" fill="#141414"/>
<path d="M147.808 0.894043H142.742V5.96004H147.808V0.894043Z" fill="#141414"/>
<path d="M5.95998 5.95996H0.893982V11.026H5.95998V5.95996Z" fill="#141414"/>
<path d="M36.356 5.95996H31.29V11.026H36.356V5.95996Z" fill="#141414"/>
<path d="M46.488 5.95996H41.422V11.026H46.488V5.95996Z" fill="#141414"/>
<path d="M56.62 5.95996H51.554V11.026H56.62V5.95996Z" fill="#141414"/>
<path d="M66.752 5.95996H61.686V11.026H66.752V5.95996Z" fill="#141414"/>
<path d="M71.818 5.95996H66.752V11.026H71.818V5.95996Z" fill="#141414"/>
<path d="M81.95 5.95996H76.884V11.026H81.95V5.95996Z" fill="#141414"/>
<path d="M92.082 5.95996H87.016V11.026H92.082V5.95996Z" fill="#141414"/>
<path d="M107.28 5.95996H102.214V11.026H107.28V5.95996Z" fill="#141414"/>
<path d="M117.412 5.95996H112.346V11.026H117.412V5.95996Z" fill="#141414"/>
<path d="M147.808 5.95996H142.742V11.026H147.808V5.95996Z" fill="#141414"/>
<path d="M5.95998 11.0259H0.893982V16.0919H5.95998V11.0259Z" fill="#141414"/>
<path d="M16.092 11.0259H11.026V16.0919H16.092V11.0259Z" fill="#141414"/>
<path d="M21.158 11.0259H16.092V16.0919H21.158V11.0259Z" fill="#141414"/>
<path d="M26.224 11.0259H21.158V16.0919H26.224V11.0259Z" fill="#141414"/>
<path d="M36.356 11.0259H31.29V16.0919H36.356V11.0259Z" fill="#141414"/>
<path d="M46.488 11.0259H41.422V16.0919H46.488V11.0259Z" fill="#141414"/>
<path d="M56.62 11.0259H51.554V16.0919H56.62V11.0259Z" fill="#141414"/>
<path d="M76.884 11.0259H71.818V16.0919H76.884V11.0259Z" fill="#141414"/>
<path d="M87.016 11.0259H81.95V16.0919H87.016V11.0259Z" fill="#141414"/>
<path d="M97.148 11.0259H92.082V16.0919H97.148V11.0259Z" fill="#141414"/>
<path d="M117.412 11.0259H112.346V16.0919H117.412V11.0259Z" fill="#141414"/>
<path d="M127.544 11.0259H122.478V16.0919H127.544V11.0259Z" fill="#141414"/>
<path d="M132.61 11.0259H127.544V16.0919H132.61V11.0259Z" fill="#141414"/>
<path d="M137.676 11.0259H132.61V16.0919H137.676V11.0259Z" fill="#141414"/>
<path d="M147.808 11.0259H142.742V16.0919H147.808V11.0259Z" fill="#141414"/>
<path d="M5.95998 16.0918H0.893982V21.1578H5.95998V16.0918Z" fill="#141414"/>
<path d="M16.092 16.0918H11.026V21.1578H16.092V16.0918Z" fill="#141414"/>
<path d="M21.158 16.0918H16.092V21.1578H21.158V16.0918Z" fill="#141414"/>
<path d="M26.224 16.0918H21.158V21.1578H26.224V16.0918Z" fill="#141414"/>
<path d="M36.356 16.0918H31.29V21.1578H36.356V16.0918Z" fill="#141414"/>
<path d="M56.62 16.0918H51.554V21.1578H56.62V16.0918Z" fill="#141414"/>
<path d="M71.818 16.0918H66.752V21.1578H71.818V16.0918Z" fill="#141414"/>
<path d="M76.884 16.0918H71.818V21.1578H76.884V16.0918Z" fill="#141414"/>
<path d="M97.148 16.0918H92.082V21.1578H97.148V16.0918Z" fill="#141414"/>
<path d="M117.412 16.0918H112.346V21.1578H117.412V16.0918Z" fill="#141414"/>
<path d="M127.544 16.0918H122.478V21.1578H127.544V16.0918Z" fill="#141414"/>
<path d="M132.61 16.0918H127.544V21.1578H132.61V16.0918Z" fill="#141414"/>
<path d="M137.676 16.0918H132.61V21.1578H137.676V16.0918Z" fill="#141414"/>
<path d="M147.808 16.0918H142.742V21.1578H147.808V16.0918Z" fill="#141414"/>
<path d="M5.95998 21.1582H0.893982V26.2242H5.95998V21.1582Z" fill="#141414"/>
<path d="M16.092 21.1582H11.026V26.2242H16.092V21.1582Z" fill="#141414"/>
<path d="M21.158 21.1582H16.092V26.2242H21.158V21.1582Z" fill="#141414"/>
<path d="M26.224 21.1582H21.158V26.2242H26.224V21.1582Z" fill="#141414"/>
<path d="M36.356 21.1582H31.29V26.2242H36.356V21.1582Z" fill="#141414"/>
<path d="M51.554 21.1582H46.488V26.2242H51.554V21.1582Z" fill="#141414"/>
<path d="M81.95 21.1582H76.884V26.2242H81.95V21.1582Z" fill="#141414"/>
<path d="M87.016 21.1582H81.95V26.2242H87.016V21.1582Z" fill="#141414"/>
<path d="M92.082 21.1582H87.016V26.2242H92.082V21.1582Z" fill="#141414"/>
<path d="M102.214 21.1582H97.148V26.2242H102.214V21.1582Z" fill="#141414"/>
<path d="M107.28 21.1582H102.214V26.2242H107.28V21.1582Z" fill="#141414"/>
<path d="M117.412 21.1582H112.346V26.2242H117.412V21.1582Z" fill="#141414"/>
<path d="M127.544 21.1582H122.478V26.2242H127.544V21.1582Z" fill="#141414"/>
<path d="M132.61 21.1582H127.544V26.2242H132.61V21.1582Z" fill="#141414"/>
<path d="M137.676 21.1582H132.61V26.2242H137.676V21.1582Z" fill="#141414"/>
<path d="M147.808 21.1582H142.742V26.2242H147.808V21.1582Z" fill="#141414"/>
<path d="M5.95998 26.2241H0.893982V31.2901H5.95998V26.2241Z" fill="#141414"/>
<path d="M36.356 26.2241H31.29V31.2901H36.356V26.2241Z" fill="#141414"/>
<path d="M46.488 26.2241H41.422V31.2901H46.488V26.2241Z" fill="#141414"/>
<path d="M51.554 26.2241H46.488V31.2901H51.554V26.2241Z" fill="#141414"/>
<path d="M56.62 26.2241H51.554V31.2901H56.62V26.2241Z" fill="#141414"/>
<path d="M61.686 26.2241H56.62V31.2901H61.686V26.2241Z" fill="#141414"/>
<path d="M76.884 26.2241H71.818V31.2901H76.884V26.2241Z" fill="#141414"/>
<path d="M81.95 26.2241H76.884V31.2901H81.95V26.2241Z" fill="#141414"/>
<path d="M92.082 26.2241H87.016V31.2901H92.082V26.2241Z" fill="#141414"/>
<path d="M102.214 26.2241H97.148V31.2901H102.214V26.2241Z" fill="#141414"/>
<path d="M117.412 26.2241H112.346V31.2901H117.412V26.2241Z" fill="#141414"/>
<path d="M147.808 26.2241H142.742V31.2901H147.808V26.2241Z" fill="#141414"/>
<path d="M5.95998 31.29H0.893982V36.356H5.95998V31.29Z" fill="#141414"/>
<path d="M11.026 31.29H5.96002V36.356H11.026V31.29Z" fill="#141414"/>
<path d="M16.092 31.29H11.026V36.356H16.092V31.29Z" fill="#141414"/>
<path d="M21.158 31.29H16.092V36.356H21.158V31.29Z" fill="#141414"/>
<path d="M26.224 31.29H21.158V36.356H26.224V31.29Z" fill="#141414"/>
<path d="M31.29 31.29H26.224V36.356H31.29V31.29Z" fill="#141414"/>
<path d="M36.356 31.29H31.29V36.356H36.356V31.29Z" fill="#141414"/>
<path d="M46.488 31.29H41.422V36.356H46.488V31.29Z" fill="#141414"/>
<path d="M56.62 31.29H51.554V36.356H56.62V31.29Z" fill="#141414"/>
<path d="M66.752 31.29H61.686V36.356H66.752V31.29Z" fill="#141414"/>
<path d="M76.884 31.29H71.818V36.356H76.884V31.29Z" fill="#141414"/>
<path d="M87.016 31.29H81.95V36.356H87.016V31.29Z" fill="#141414"/>
<path d="M97.148 31.29H92.082V36.356H97.148V31.29Z" fill="#141414"/>
<path d="M107.28 31.29H102.214V36.356H107.28V31.29Z" fill="#141414"/>
<path d="M117.412 31.29H112.346V36.356H117.412V31.29Z" fill="#141414"/>
<path d="M122.478 31.29H117.412V36.356H122.478V31.29Z" fill="#141414"/>
<path d="M127.544 31.29H122.478V36.356H127.544V31.29Z" fill="#141414"/>
<path d="M132.61 31.29H127.544V36.356H132.61V31.29Z" fill="#141414"/>
<path d="M137.676 31.29H132.61V36.356H137.676V31.29Z" fill="#141414"/>
<path d="M142.742 31.29H137.676V36.356H142.742V31.29Z" fill="#141414"/>
<path d="M147.808 31.29H142.742V36.356H147.808V31.29Z" fill="#141414"/>
<path d="M46.488 36.356H41.422V41.422H46.488V36.356Z" fill="#141414"/>
<path d="M56.62 36.356H51.554V41.422H56.62V36.356Z" fill="#141414"/>
<path d="M76.884 36.356H71.818V41.422H76.884V36.356Z" fill="#141414"/>
<path d="M81.95 36.356H76.884V41.422H81.95V36.356Z" fill="#141414"/>
<path d="M87.016 36.356H81.95V41.422H87.016V36.356Z" fill="#141414"/>
<path d="M92.082 36.356H87.016V41.422H92.082V36.356Z" fill="#141414"/>
<path d="M97.148 36.356H92.082V41.422H97.148V36.356Z" fill="#141414"/>
<path d="M102.214 36.356H97.148V41.422H102.214V36.356Z" fill="#141414"/>
<path d="M107.28 36.356H102.214V41.422H107.28V36.356Z" fill="#141414"/>
<path d="M16.092 41.4219H11.026V46.4879H16.092V41.4219Z" fill="#141414"/>
<path d="M21.158 41.4219H16.092V46.4879H21.158V41.4219Z" fill="#141414"/>
<path d="M26.224 41.4219H21.158V46.4879H26.224V41.4219Z" fill="#141414"/>
<path d="M36.356 41.4219H31.29V46.4879H36.356V41.4219Z" fill="#141414"/>
<path d="M46.488 41.4219H41.422V46.4879H46.488V41.4219Z" fill="#141414"/>
<path d="M66.752 41.4219H61.686V46.4879H66.752V41.4219Z" fill="#141414"/>
<path d="M76.884 41.4219H71.818V46.4879H76.884V41.4219Z" fill="#141414"/>
<path d="M81.95 41.4219H76.884V46.4879H81.95V41.4219Z" fill="#141414"/>
<path d="M87.016 41.4219H81.95V46.4879H87.016V41.4219Z" fill="#141414"/>
<path d="M112.346 41.4219H107.28V46.4879H112.346V41.4219Z" fill="#141414"/>
<path d="M117.412 41.4219H112.346V46.4879H117.412V41.4219Z" fill="#141414"/>
<path d="M122.478 41.4219H117.412V46.4879H122.478V41.4219Z" fill="#141414"/>
<path d="M137.676 41.4219H132.61V46.4879H137.676V41.4219Z" fill="#141414"/>
<path d="M142.742 41.4219H137.676V46.4879H142.742V41.4219Z" fill="#141414"/>
<path d="M147.808 41.4219H142.742V46.4879H147.808V41.4219Z" fill="#141414"/>
<path d="M5.95998 46.4878H0.893982V51.5538H5.95998V46.4878Z" fill="#141414"/>
<path d="M16.092 46.4878H11.026V51.5538H16.092V46.4878Z" fill="#141414"/>
<path d="M31.29 46.4878H26.224V51.5538H31.29V46.4878Z" fill="#141414"/>
<path d="M41.422 46.4878H36.356V51.5538H41.422V46.4878Z" fill="#141414"/>
<path d="M46.488 46.4878H41.422V51.5538H46.488V46.4878Z" fill="#141414"/>
<path d="M56.62 46.4878H51.554V51.5538H56.62V46.4878Z" fill="#141414"/>
<path d="M61.686 46.4878H56.62V51.5538H61.686V46.4878Z" fill="#141414"/>
<path d="M66.752 46.4878H61.686V51.5538H66.752V46.4878Z" fill="#141414"/>
<path d="M81.95 46.4878H76.884V51.5538H81.95V46.4878Z" fill="#141414"/>
<path d="M87.016 46.4878H81.95V51.5538H87.016V46.4878Z" fill="#141414"/>
<path d="M92.082 46.4878H87.016V51.5538H92.082V46.4878Z" fill="#141414"/>
<path d="M97.148 46.4878H92.082V51.5538H97.148V46.4878Z" fill="#141414"/>
<path d="M107.28 46.4878H102.214V51.5538H107.28V46.4878Z" fill="#141414"/>
<path d="M127.544 46.4878H122.478V51.5538H127.544V46.4878Z" fill="#141414"/>
<path d="M132.61 46.4878H127.544V51.5538H132.61V46.4878Z" fill="#141414"/>
<path d="M147.808 46.4878H142.742V51.5538H147.808V46.4878Z" fill="#141414"/>
<path d="M5.95998 51.5542H0.893982V56.6202H5.95998V51.5542Z" fill="#141414"/>
<path d="M11.026 51.5542H5.96002V56.6202H11.026V51.5542Z" fill="#141414"/>
<path d="M36.356 51.5542H31.29V56.6202H36.356V51.5542Z" fill="#141414"/>
<path d="M41.422 51.5542H36.356V56.6202H41.422V51.5542Z" fill="#141414"/>
<path d="M56.62 51.5542H51.554V56.6202H56.62V51.5542Z" fill="#141414"/>
<path d="M61.686 51.5542H56.62V56.6202H61.686V51.5542Z" fill="#141414"/>
<path d="M71.818 51.5542H66.752V56.6202H71.818V51.5542Z" fill="#141414"/>
<path d="M92.082 51.5542H87.016V56.6202H92.082V51.5542Z" fill="#141414"/>
<path d="M97.148 51.5542H92.082V56.6202H97.148V51.5542Z" fill="#141414"/>
<path d="M102.214 51.5542H97.148V56.6202H102.214V51.5542Z" fill="#141414"/>
<path d="M137.676 51.5542H132.61V56.6202H137.676V51.5542Z" fill="#141414"/>
<path d="M142.742 51.5542H137.676V56.6202H142.742V51.5542Z" fill="#141414"/>
<path d="M5.95998 56.6201H0.893982V61.6861H5.95998V56.6201Z" fill="#141414"/>
<path d="M11.026 56.6201H5.96002V61.6861H11.026V56.6201Z" fill="#141414"/>
<path d="M16.092 56.6201H11.026V61.6861H16.092V56.6201Z" fill="#141414"/>
<path d="M21.158 56.6201H16.092V61.6861H21.158V56.6201Z" fill="#141414"/>
<path d="M26.224 56.6201H21.158V61.6861H26.224V56.6201Z" fill="#141414"/>
<path d="M31.29 56.6201H26.224V61.6861H31.29V56.6201Z" fill="#141414"/>
<path d="M41.422 56.6201H36.356V61.6861H41.422V56.6201Z" fill="#141414"/>
<path d="M46.488 56.6201H41.422V61.6861H46.488V56.6201Z" fill="#141414"/>
<path d="M51.554 56.6201H46.488V61.6861H51.554V56.6201Z" fill="#141414"/>
<path d="M92.082 56.6201H87.016V61.6861H92.082V56.6201Z" fill="#141414"/>
<path d="M97.148 56.6201H92.082V61.6861H97.148V56.6201Z" fill="#141414"/>
<path d="M102.214 56.6201H97.148V61.6861H102.214V56.6201Z" fill="#141414"/>
<path d="M107.28 56.6201H102.214V61.6861H107.28V56.6201Z" fill="#141414"/>
<path d="M112.346 56.6201H107.28V61.6861H112.346V56.6201Z" fill="#141414"/>
<path d="M117.412 56.6201H112.346V61.6861H117.412V56.6201Z" fill="#141414"/>
<path d="M122.478 56.6201H117.412V61.6861H122.478V56.6201Z" fill="#141414"/>
<path d="M127.544 56.6201H122.478V61.6861H127.544V56.6201Z" fill="#141414"/>
<path d="M132.61 56.6201H127.544V61.6861H132.61V56.6201Z" fill="#141414"/>
<path d="M137.676 56.6201H132.61V61.6861H137.676V56.6201Z" fill="#141414"/>
<path d="M5.95998 61.686H0.893982V66.752H5.95998V61.686Z" fill="#141414"/>
<path d="M16.092 61.686H11.026V66.752H16.092V61.686Z" fill="#141414"/>
<path d="M36.356 61.686H31.29V66.752H36.356V61.686Z" fill="#141414"/>
<path d="M41.422 61.686H36.356V66.752H41.422V61.686Z" fill="#141414"/>
<path d="M71.818 61.686H66.752V66.752H71.818V61.686Z" fill="#141414"/>
<path d="M87.016 61.686H81.95V66.752H87.016V61.686Z" fill="#141414"/>
<path d="M92.082 61.686H87.016V66.752H92.082V61.686Z" fill="#141414"/>
<path d="M97.148 61.686H92.082V66.752H97.148V61.686Z" fill="#141414"/>
<path d="M102.214 61.686H97.148V66.752H102.214V61.686Z" fill="#141414"/>
<path d="M107.28 61.686H102.214V66.752H107.28V61.686Z" fill="#141414"/>
<path d="M117.412 61.686H112.346V66.752H117.412V61.686Z" fill="#141414"/>
<path d="M122.478 61.686H117.412V66.752H122.478V61.686Z" fill="#141414"/>
<path d="M142.742 61.686H137.676V66.752H142.742V61.686Z" fill="#141414"/>
<path d="M11.026 66.752H5.96002V71.818H11.026V66.752Z" fill="#141414"/>
<path d="M16.092 66.752H11.026V71.818H16.092V66.752Z" fill="#141414"/>
<path d="M21.158 66.752H16.092V71.818H21.158V66.752Z" fill="#141414"/>
<path d="M46.488 66.752H41.422V71.818H46.488V66.752Z" fill="#141414"/>
<path d="M56.62 66.752H51.554V71.818H56.62V66.752Z" fill="#141414"/>
<path d="M71.818 66.752H66.752V71.818H71.818V66.752Z" fill="#141414"/>
<path d="M76.884 66.752H71.818V71.818H76.884V66.752Z" fill="#141414"/>
<path d="M81.95 66.752H76.884V71.818H81.95V66.752Z" fill="#141414"/>
<path d="M87.016 66.752H81.95V71.818H87.016V66.752Z" fill="#141414"/>
<path d="M92.082 66.752H87.016V71.818H92.082V66.752Z" fill="#141414"/>
<path d="M97.148 66.752H92.082V71.818H97.148V66.752Z" fill="#141414"/>
<path d="M117.412 66.752H112.346V71.818H117.412V66.752Z" fill="#141414"/>
<path d="M127.544 66.752H122.478V71.818H127.544V66.752Z" fill="#141414"/>
<path d="M132.61 66.752H127.544V71.818H132.61V66.752Z" fill="#141414"/>
<path d="M147.808 66.752H142.742V71.818H147.808V66.752Z" fill="#141414"/>
<path d="M5.95998 71.8179H0.893982V76.8839H5.95998V71.8179Z" fill="#141414"/>
<path d="M11.026 71.8179H5.96002V76.8839H11.026V71.8179Z" fill="#141414"/>
<path d="M16.092 71.8179H11.026V76.8839H16.092V71.8179Z" fill="#141414"/>
<path d="M21.158 71.8179H16.092V76.8839H21.158V71.8179Z" fill="#141414"/>
<path d="M31.29 71.8179H26.224V76.8839H31.29V71.8179Z" fill="#141414"/>
<path d="M36.356 71.8179H31.29V76.8839H36.356V71.8179Z" fill="#141414"/>
<path d="M46.488 71.8179H41.422V76.8839H46.488V71.8179Z" fill="#141414"/>
<path d="M56.62 71.8179H51.554V76.8839H56.62V71.8179Z" fill="#141414"/>
<path d="M61.686 71.8179H56.62V76.8839H61.686V71.8179Z" fill="#141414"/>
<path d="M66.752 71.8179H61.686V76.8839H66.752V71.8179Z" fill="#141414"/>
<path d="M87.016 71.8179H81.95V76.8839H87.016V71.8179Z" fill="#141414"/>
<path d="M132.61 71.8179H127.544V76.8839H132.61V71.8179Z" fill="#141414"/>
<path d="M137.676 71.8179H132.61V76.8839H137.676V71.8179Z" fill="#141414"/>
<path d="M147.808 71.8179H142.742V76.8839H147.808V71.8179Z" fill="#141414"/>
<path d="M5.95998 76.8838H0.893982V81.9498H5.95998V76.8838Z" fill="#141414"/>
<path d="M11.026 76.8838H5.96002V81.9498H11.026V76.8838Z" fill="#141414"/>
<path d="M21.158 76.8838H16.092V81.9498H21.158V76.8838Z" fill="#141414"/>
<path d="M26.224 76.8838H21.158V81.9498H26.224V76.8838Z" fill="#141414"/>
<path d="M41.422 76.8838H36.356V81.9498H41.422V76.8838Z" fill="#141414"/>
<path d="M46.488 76.8838H41.422V81.9498H46.488V76.8838Z" fill="#141414"/>
<path d="M51.554 76.8838H46.488V81.9498H51.554V76.8838Z" fill="#141414"/>
<path d="M56.62 76.8838H51.554V81.9498H56.62V76.8838Z" fill="#141414"/>
<path d="M61.686 76.8838H56.62V81.9498H61.686V76.8838Z" fill="#141414"/>
<path d="M76.884 76.8838H71.818V81.9498H76.884V76.8838Z" fill="#141414"/>
<path d="M81.95 76.8838H76.884V81.9498H81.95V76.8838Z" fill="#141414"/>
<path d="M97.148 76.8838H92.082V81.9498H97.148V76.8838Z" fill="#141414"/>
<path d="M102.214 76.8838H97.148V81.9498H102.214V76.8838Z" fill="#141414"/>
<path d="M107.28 76.8838H102.214V81.9498H107.28V76.8838Z" fill="#141414"/>
<path d="M117.412 76.8838H112.346V81.9498H117.412V76.8838Z" fill="#141414"/>
<path d="M122.478 76.8838H117.412V81.9498H122.478V76.8838Z" fill="#141414"/>
<path d="M127.544 76.8838H122.478V81.9498H127.544V76.8838Z" fill="#141414"/>
<path d="M132.61 76.8838H127.544V81.9498H132.61V76.8838Z" fill="#141414"/>
<path d="M142.742 76.8838H137.676V81.9498H142.742V76.8838Z" fill="#141414"/>
<path d="M147.808 76.8838H142.742V81.9498H147.808V76.8838Z" fill="#141414"/>
<path d="M5.95998 81.9502H0.893982V87.0162H5.95998V81.9502Z" fill="#141414"/>
<path d="M16.092 81.9502H11.026V87.0162H16.092V81.9502Z" fill="#141414"/>
<path d="M36.356 81.9502H31.29V87.0162H36.356V81.9502Z" fill="#141414"/>
<path d="M46.488 81.9502H41.422V87.0162H46.488V81.9502Z" fill="#141414"/>
<path d="M51.554 81.9502H46.488V87.0162H51.554V81.9502Z" fill="#141414"/>
<path d="M56.62 81.9502H51.554V87.0162H56.62V81.9502Z" fill="#141414"/>
<path d="M61.686 81.9502H56.62V87.0162H61.686V81.9502Z" fill="#141414"/>
<path d="M97.148 81.9502H92.082V87.0162H97.148V81.9502Z" fill="#141414"/>
<path d="M112.346 81.9502H107.28V87.0162H112.346V81.9502Z" fill="#141414"/>
<path d="M122.478 81.9502H117.412V87.0162H122.478V81.9502Z" fill="#141414"/>
<path d="M137.676 81.9502H132.61V87.0162H137.676V81.9502Z" fill="#141414"/>
<path d="M5.95998 87.0161H0.893982V92.0821H5.95998V87.0161Z" fill="#141414"/>
<path d="M16.092 87.0161H11.026V92.0821H16.092V87.0161Z" fill="#141414"/>
<path d="M21.158 87.0161H16.092V92.0821H21.158V87.0161Z" fill="#141414"/>
<path d="M31.29 87.0161H26.224V92.0821H31.29V87.0161Z" fill="#141414"/>
<path d="M46.488 87.0161H41.422V92.0821H46.488V87.0161Z" fill="#141414"/>
<path d="M51.554 87.0161H46.488V92.0821H51.554V87.0161Z" fill="#141414"/>
<path d="M61.686 87.0161H56.62V92.0821H61.686V87.0161Z" fill="#141414"/>
<path d="M66.752 87.0161H61.686V92.0821H66.752V87.0161Z" fill="#141414"/>
<path d="M76.884 87.0161H71.818V92.0821H76.884V87.0161Z" fill="#141414"/>
<path d="M92.082 87.0161H87.016V92.0821H92.082V87.0161Z" fill="#141414"/>
<path d="M112.346 87.0161H107.28V92.0821H112.346V87.0161Z" fill="#141414"/>
<path d="M117.412 87.0161H112.346V92.0821H117.412V87.0161Z" fill="#141414"/>
<path d="M122.478 87.0161H117.412V92.0821H122.478V87.0161Z" fill="#141414"/>
<path d="M132.61 87.0161H127.544V92.0821H132.61V87.0161Z" fill="#141414"/>
<path d="M142.742 87.0161H137.676V92.0821H142.742V87.0161Z" fill="#141414"/>
<path d="M5.95998 92.082H0.893982V97.148H5.95998V92.082Z" fill="#141414"/>
<path d="M36.356 92.082H31.29V97.148H36.356V92.082Z" fill="#141414"/>
<path d="M41.422 92.082H36.356V97.148H41.422V92.082Z" fill="#141414"/>
<path d="M51.554 92.082H46.488V97.148H51.554V92.082Z" fill="#141414"/>
<path d="M56.62 92.082H51.554V97.148H56.62V92.082Z" fill="#141414"/>
<path d="M61.686 92.082H56.62V97.148H61.686V92.082Z" fill="#141414"/>
<path d="M71.818 92.082H66.752V97.148H71.818V92.082Z" fill="#141414"/>
<path d="M76.884 92.082H71.818V97.148H76.884V92.082Z" fill="#141414"/>
<path d="M81.95 92.082H76.884V97.148H81.95V92.082Z" fill="#141414"/>
<path d="M122.478 92.082H117.412V97.148H122.478V92.082Z" fill="#141414"/>
<path d="M127.544 92.082H122.478V97.148H127.544V92.082Z" fill="#141414"/>
<path d="M137.676 92.082H132.61V97.148H137.676V92.082Z" fill="#141414"/>
<path d="M5.95998 97.1479H0.893982V102.214H5.95998V97.1479Z" fill="#141414"/>
<path d="M16.092 97.1479H11.026V102.214H16.092V97.1479Z" fill="#141414"/>
<path d="M26.224 97.1479H21.158V102.214H26.224V97.1479Z" fill="#141414"/>
<path d="M51.554 97.1479H46.488V102.214H51.554V97.1479Z" fill="#141414"/>
<path d="M61.686 97.1479H56.62V102.214H61.686V97.1479Z" fill="#141414"/>
<path d="M71.818 97.1479H66.752V102.214H71.818V97.1479Z" fill="#141414"/>
<path d="M87.016 97.1479H81.95V102.214H87.016V97.1479Z" fill="#141414"/>
<path d="M97.148 97.1479H92.082V102.214H97.148V97.1479Z" fill="#141414"/>
<path d="M112.346 97.1479H107.28V102.214H112.346V97.1479Z" fill="#141414"/>
<path d="M117.412 97.1479H112.346V102.214H117.412V97.1479Z" fill="#141414"/>
<path d="M122.478 97.1479H117.412V102.214H122.478V97.1479Z" fill="#141414"/>
<path d="M127.544 97.1479H122.478V102.214H127.544V97.1479Z" fill="#141414"/>
<path d="M132.61 97.1479H127.544V102.214H132.61V97.1479Z" fill="#141414"/>
<path d="M142.742 97.1479H137.676V102.214H142.742V97.1479Z" fill="#141414"/>
<path d="M147.808 97.1479H142.742V102.214H147.808V97.1479Z" fill="#141414"/>
<path d="M5.95998 102.214H0.893982V107.28H5.95998V102.214Z" fill="#141414"/>
<path d="M21.158 102.214H16.092V107.28H21.158V102.214Z" fill="#141414"/>
<path d="M31.29 102.214H26.224V107.28H31.29V102.214Z" fill="#141414"/>
<path d="M36.356 102.214H31.29V107.28H36.356V102.214Z" fill="#141414"/>
<path d="M41.422 102.214H36.356V107.28H41.422V102.214Z" fill="#141414"/>
<path d="M46.488 102.214H41.422V107.28H46.488V102.214Z" fill="#141414"/>
<path d="M51.554 102.214H46.488V107.28H51.554V102.214Z" fill="#141414"/>
<path d="M71.818 102.214H66.752V107.28H71.818V102.214Z" fill="#141414"/>
<path d="M76.884 102.214H71.818V107.28H76.884V102.214Z" fill="#141414"/>
<path d="M92.082 102.214H87.016V107.28H92.082V102.214Z" fill="#141414"/>
<path d="M107.28 102.214H102.214V107.28H107.28V102.214Z" fill="#141414"/>
<path d="M112.346 102.214H107.28V107.28H112.346V102.214Z" fill="#141414"/>
<path d="M117.412 102.214H112.346V107.28H117.412V102.214Z" fill="#141414"/>
<path d="M122.478 102.214H117.412V107.28H122.478V102.214Z" fill="#141414"/>
<path d="M127.544 102.214H122.478V107.28H127.544V102.214Z" fill="#141414"/>
<path d="M132.61 102.214H127.544V107.28H132.61V102.214Z" fill="#141414"/>
<path d="M142.742 102.214H137.676V107.28H142.742V102.214Z" fill="#141414"/>
<path d="M147.808 102.214H142.742V107.28H147.808V102.214Z" fill="#141414"/>
<path d="M46.488 107.28H41.422V112.346H46.488V107.28Z" fill="#141414"/>
<path d="M51.554 107.28H46.488V112.346H51.554V107.28Z" fill="#141414"/>
<path d="M56.62 107.28H51.554V112.346H56.62V107.28Z" fill="#141414"/>
<path d="M61.686 107.28H56.62V112.346H61.686V107.28Z" fill="#141414"/>
<path d="M71.818 107.28H66.752V112.346H71.818V107.28Z" fill="#141414"/>
<path d="M81.95 107.28H76.884V112.346H81.95V107.28Z" fill="#141414"/>
<path d="M87.016 107.28H81.95V112.346H87.016V107.28Z" fill="#141414"/>
<path d="M97.148 107.28H92.082V112.346H97.148V107.28Z" fill="#141414"/>
<path d="M102.214 107.28H97.148V112.346H102.214V107.28Z" fill="#141414"/>
<path d="M107.28 107.28H102.214V112.346H107.28V107.28Z" fill="#141414"/>
<path d="M127.544 107.28H122.478V112.346H127.544V107.28Z" fill="#141414"/>
<path d="M132.61 107.28H127.544V112.346H132.61V107.28Z" fill="#141414"/>
<path d="M142.742 107.28H137.676V112.346H142.742V107.28Z" fill="#141414"/>
<path d="M5.95998 112.346H0.893982V117.412H5.95998V112.346Z" fill="#141414"/>
<path d="M11.026 112.346H5.96002V117.412H11.026V112.346Z" fill="#141414"/>
<path d="M16.092 112.346H11.026V117.412H16.092V112.346Z" fill="#141414"/>
<path d="M21.158 112.346H16.092V117.412H21.158V112.346Z" fill="#141414"/>
<path d="M26.224 112.346H21.158V117.412H26.224V112.346Z" fill="#141414"/>
<path d="M31.29 112.346H26.224V117.412H31.29V112.346Z" fill="#141414"/>
<path d="M36.356 112.346H31.29V117.412H36.356V112.346Z" fill="#141414"/>
<path d="M61.686 112.346H56.62V117.412H61.686V112.346Z" fill="#141414"/>
<path d="M66.752 112.346H61.686V117.412H66.752V112.346Z" fill="#141414"/>
<path d="M71.818 112.346H66.752V117.412H71.818V112.346Z" fill="#141414"/>
<path d="M76.884 112.346H71.818V117.412H76.884V112.346Z" fill="#141414"/>
<path d="M81.95 112.346H76.884V117.412H81.95V112.346Z" fill="#141414"/>
<path d="M92.082 112.346H87.016V117.412H92.082V112.346Z" fill="#141414"/>
<path d="M102.214 112.346H97.148V117.412H102.214V112.346Z" fill="#141414"/>
<path d="M107.28 112.346H102.214V117.412H107.28V112.346Z" fill="#141414"/>
<path d="M117.412 112.346H112.346V117.412H117.412V112.346Z" fill="#141414"/>
<path d="M127.544 112.346H122.478V117.412H127.544V112.346Z" fill="#141414"/>
<path d="M137.676 112.346H132.61V117.412H137.676V112.346Z" fill="#141414"/>
<path d="M5.95998 117.412H0.893982V122.478H5.95998V117.412Z" fill="#141414"/>
<path d="M36.356 117.412H31.29V122.478H36.356V117.412Z" fill="#141414"/>
<path d="M51.554 117.412H46.488V122.478H51.554V117.412Z" fill="#141414"/>
<path d="M61.686 117.412H56.62V122.478H61.686V117.412Z" fill="#141414"/>
<path d="M87.016 117.412H81.95V122.478H87.016V117.412Z" fill="#141414"/>
<path d="M92.082 117.412H87.016V122.478H92.082V117.412Z" fill="#141414"/>
<path d="M102.214 117.412H97.148V122.478H102.214V117.412Z" fill="#141414"/>
<path d="M107.28 117.412H102.214V122.478H107.28V117.412Z" fill="#141414"/>
<path d="M127.544 117.412H122.478V122.478H127.544V117.412Z" fill="#141414"/>
<path d="M137.676 117.412H132.61V122.478H137.676V117.412Z" fill="#141414"/>
<path d="M147.808 117.412H142.742V122.478H147.808V117.412Z" fill="#141414"/>
<path d="M5.95998 122.478H0.893982V127.544H5.95998V122.478Z" fill="#141414"/>
<path d="M16.092 122.478H11.026V127.544H16.092V122.478Z" fill="#141414"/>
<path d="M21.158 122.478H16.092V127.544H21.158V122.478Z" fill="#141414"/>
<path d="M26.224 122.478H21.158V127.544H26.224V122.478Z" fill="#141414"/>
<path d="M36.356 122.478H31.29V127.544H36.356V122.478Z" fill="#141414"/>
<path d="M46.488 122.478H41.422V127.544H46.488V122.478Z" fill="#141414"/>
<path d="M56.62 122.478H51.554V127.544H56.62V122.478Z" fill="#141414"/>
<path d="M61.686 122.478H56.62V127.544H61.686V122.478Z" fill="#141414"/>
<path d="M66.752 122.478H61.686V127.544H66.752V122.478Z" fill="#141414"/>
<path d="M76.884 122.478H71.818V127.544H76.884V122.478Z" fill="#141414"/>
<path d="M81.95 122.478H76.884V127.544H81.95V122.478Z" fill="#141414"/>
<path d="M92.082 122.478H87.016V127.544H92.082V122.478Z" fill="#141414"/>
<path d="M102.214 122.478H97.148V127.544H102.214V122.478Z" fill="#141414"/>
<path d="M107.28 122.478H102.214V127.544H107.28V122.478Z" fill="#141414"/>
<path d="M112.346 122.478H107.28V127.544H112.346V122.478Z" fill="#141414"/>
<path d="M117.412 122.478H112.346V127.544H117.412V122.478Z" fill="#141414"/>
<path d="M122.478 122.478H117.412V127.544H122.478V122.478Z" fill="#141414"/>
<path d="M127.544 122.478H122.478V127.544H127.544V122.478Z" fill="#141414"/>
<path d="M132.61 122.478H127.544V127.544H132.61V122.478Z" fill="#141414"/>
<path d="M137.676 122.478H132.61V127.544H137.676V122.478Z" fill="#141414"/>
<path d="M5.95998 127.544H0.893982V132.61H5.95998V127.544Z" fill="#141414"/>
<path d="M16.092 127.544H11.026V132.61H16.092V127.544Z" fill="#141414"/>
<path d="M21.158 127.544H16.092V132.61H21.158V127.544Z" fill="#141414"/>
<path d="M26.224 127.544H21.158V132.61H26.224V127.544Z" fill="#141414"/>
<path d="M36.356 127.544H31.29V132.61H36.356V127.544Z" fill="#141414"/>
<path d="M46.488 127.544H41.422V132.61H46.488V127.544Z" fill="#141414"/>
<path d="M51.554 127.544H46.488V132.61H51.554V127.544Z" fill="#141414"/>
<path d="M56.62 127.544H51.554V132.61H56.62V127.544Z" fill="#141414"/>
<path d="M71.818 127.544H66.752V132.61H71.818V127.544Z" fill="#141414"/>
<path d="M87.016 127.544H81.95V132.61H87.016V127.544Z" fill="#141414"/>
<path d="M92.082 127.544H87.016V132.61H92.082V127.544Z" fill="#141414"/>
<path d="M97.148 127.544H92.082V132.61H97.148V127.544Z" fill="#141414"/>
<path d="M107.28 127.544H102.214V132.61H107.28V127.544Z" fill="#141414"/>
<path d="M117.412 127.544H112.346V132.61H117.412V127.544Z" fill="#141414"/>
<path d="M132.61 127.544H127.544V132.61H132.61V127.544Z" fill="#141414"/>
<path d="M5.95998 132.61H0.893982V137.676H5.95998V132.61Z" fill="#141414"/>
<path d="M16.092 132.61H11.026V137.676H16.092V132.61Z" fill="#141414"/>
<path d="M21.158 132.61H16.092V137.676H21.158V132.61Z" fill="#141414"/>
<path d="M26.224 132.61H21.158V137.676H26.224V132.61Z" fill="#141414"/>
<path d="M36.356 132.61H31.29V137.676H36.356V132.61Z" fill="#141414"/>
<path d="M46.488 132.61H41.422V137.676H46.488V132.61Z" fill="#141414"/>
<path d="M51.554 132.61H46.488V137.676H51.554V132.61Z" fill="#141414"/>
<path d="M61.686 132.61H56.62V137.676H61.686V132.61Z" fill="#141414"/>
<path d="M66.752 132.61H61.686V137.676H66.752V132.61Z" fill="#141414"/>
<path d="M71.818 132.61H66.752V137.676H71.818V132.61Z" fill="#141414"/>
<path d="M76.884 132.61H71.818V137.676H76.884V132.61Z" fill="#141414"/>
<path d="M81.95 132.61H76.884V137.676H81.95V132.61Z" fill="#141414"/>
<path d="M87.016 132.61H81.95V137.676H87.016V132.61Z" fill="#141414"/>
<path d="M92.082 132.61H87.016V137.676H92.082V132.61Z" fill="#141414"/>
<path d="M97.148 132.61H92.082V137.676H97.148V132.61Z" fill="#141414"/>
<path d="M122.478 132.61H117.412V137.676H122.478V132.61Z" fill="#141414"/>
<path d="M137.676 132.61H132.61V137.676H137.676V132.61Z" fill="#141414"/>
<path d="M142.742 132.61H137.676V137.676H142.742V132.61Z" fill="#141414"/>
<path d="M5.95998 137.676H0.893982V142.742H5.95998V137.676Z" fill="#141414"/>
<path d="M36.356 137.676H31.29V142.742H36.356V137.676Z" fill="#141414"/>
<path d="M61.686 137.676H56.62V142.742H61.686V137.676Z" fill="#141414"/>
<path d="M66.752 137.676H61.686V142.742H66.752V137.676Z" fill="#141414"/>
<path d="M81.95 137.676H76.884V142.742H81.95V137.676Z" fill="#141414"/>
<path d="M92.082 137.676H87.016V142.742H92.082V137.676Z" fill="#141414"/>
<path d="M97.148 137.676H92.082V142.742H97.148V137.676Z" fill="#141414"/>
<path d="M132.61 137.676H127.544V142.742H132.61V137.676Z" fill="#141414"/>
<path d="M147.808 137.676H142.742V142.742H147.808V137.676Z" fill="#141414"/>
<path d="M5.95998 142.742H0.893982V147.808H5.95998V142.742Z" fill="#141414"/>
<path d="M11.026 142.742H5.96002V147.808H11.026V142.742Z" fill="#141414"/>
<path d="M16.092 142.742H11.026V147.808H16.092V142.742Z" fill="#141414"/>
<path d="M21.158 142.742H16.092V147.808H21.158V142.742Z" fill="#141414"/>
<path d="M26.224 142.742H21.158V147.808H26.224V142.742Z" fill="#141414"/>
<path d="M31.29 142.742H26.224V147.808H31.29V142.742Z" fill="#141414"/>
<path d="M36.356 142.742H31.29V147.808H36.356V142.742Z" fill="#141414"/>
<path d="M51.554 142.742H46.488V147.808H51.554V142.742Z" fill="#141414"/>
<path d="M56.62 142.742H51.554V147.808H56.62V142.742Z" fill="#141414"/>
<path d="M71.818 142.742H66.752V147.808H71.818V142.742Z" fill="#141414"/>
<path d="M97.148 142.742H92.082V147.808H97.148V142.742Z" fill="#141414"/>
<path d="M102.214 142.742H97.148V147.808H102.214V142.742Z" fill="#141414"/>
<path d="M117.412 142.742H112.346V147.808H117.412V142.742Z" fill="#141414"/>
<path d="M127.544 142.742H122.478V147.808H127.544V142.742Z" fill="#141414"/>
<path d="M132.61 142.742H127.544V147.808H132.61V142.742Z" fill="#141414"/>
<path d="M137.676 142.742H132.61V147.808H137.676V142.742Z" fill="#141414"/>
</svg>
