<svg width="147" height="147" viewBox="0 0 147 147" fill="none" xmlns="http://www.w3.org/2000/svg">
<g clip-path="url(#clip0_22_926)">
<path d="M4.99801 0.587891H0.588013V4.99789H4.99801V0.587891Z" fill="#141414"/>
<path d="M9.40799 0.587891H4.99799V4.99789H9.40799V0.587891Z" fill="#141414"/>
<path d="M13.818 0.587891H9.40802V4.99789H13.818V0.587891Z" fill="#141414"/>
<path d="M18.228 0.587891H13.818V4.99789H18.228V0.587891Z" fill="#141414"/>
<path d="M22.638 0.587891H18.228V4.99789H22.638V0.587891Z" fill="#141414"/>
<path d="M27.048 0.587891H22.638V4.99789H27.048V0.587891Z" fill="#141414"/>
<path d="M31.458 0.587891H27.048V4.99789H31.458V0.587891Z" fill="#141414"/>
<path d="M53.508 0.587891H49.098V4.99789H53.508V0.587891Z" fill="#141414"/>
<path d="M57.918 0.587891H53.508V4.99789H57.918V0.587891Z" fill="#141414"/>
<path d="M71.148 0.587891H66.738V4.99789H71.148V0.587891Z" fill="#141414"/>
<path d="M79.968 0.587891H75.558V4.99789H79.968V0.587891Z" fill="#141414"/>
<path d="M84.378 0.587891H79.968V4.99789H84.378V0.587891Z" fill="#141414"/>
<path d="M93.198 0.587891H88.788V4.99789H93.198V0.587891Z" fill="#141414"/>
<path d="M97.608 0.587891H93.198V4.99789H97.608V0.587891Z" fill="#141414"/>
<path d="M102.018 0.587891H97.608V4.99789H102.018V0.587891Z" fill="#141414"/>
<path d="M110.838 0.587891H106.428V4.99789H110.838V0.587891Z" fill="#141414"/>
<path d="M119.658 0.587891H115.248V4.99789H119.658V0.587891Z" fill="#141414"/>
<path d="M124.068 0.587891H119.658V4.99789H124.068V0.587891Z" fill="#141414"/>
<path d="M128.478 0.587891H124.068V4.99789H128.478V0.587891Z" fill="#141414"/>
<path d="M132.888 0.587891H128.478V4.99789H132.888V0.587891Z" fill="#141414"/>
<path d="M137.298 0.587891H132.888V4.99789H137.298V0.587891Z" fill="#141414"/>
<path d="M141.708 0.587891H137.298V4.99789H141.708V0.587891Z" fill="#141414"/>
<path d="M146.118 0.587891H141.708V4.99789H146.118V0.587891Z" fill="#141414"/>
<path d="M4.99801 4.99805H0.588013V9.40805H4.99801V4.99805Z" fill="#141414"/>
<path d="M31.458 4.99805H27.048V9.40805H31.458V4.99805Z" fill="#141414"/>
<path d="M49.098 4.99805H44.688V9.40805H49.098V4.99805Z" fill="#141414"/>
<path d="M57.918 4.99805H53.508V9.40805H57.918V4.99805Z" fill="#141414"/>
<path d="M62.328 4.99805H57.918V9.40805H62.328V4.99805Z" fill="#141414"/>
<path d="M75.558 4.99805H71.148V9.40805H75.558V4.99805Z" fill="#141414"/>
<path d="M79.968 4.99805H75.558V9.40805H79.968V4.99805Z" fill="#141414"/>
<path d="M84.378 4.99805H79.968V9.40805H84.378V4.99805Z" fill="#141414"/>
<path d="M93.198 4.99805H88.788V9.40805H93.198V4.99805Z" fill="#141414"/>
<path d="M97.608 4.99805H93.198V9.40805H97.608V4.99805Z" fill="#141414"/>
<path d="M102.018 4.99805H97.608V9.40805H102.018V4.99805Z" fill="#141414"/>
<path d="M110.838 4.99805H106.428V9.40805H110.838V4.99805Z" fill="#141414"/>
<path d="M119.658 4.99805H115.248V9.40805H119.658V4.99805Z" fill="#141414"/>
<path d="M146.118 4.99805H141.708V9.40805H146.118V4.99805Z" fill="#141414"/>
<path d="M4.99801 9.4082H0.588013V13.8182H4.99801V9.4082Z" fill="#141414"/>
<path d="M13.818 9.4082H9.40802V13.8182H13.818V9.4082Z" fill="#141414"/>
<path d="M18.228 9.4082H13.818V13.8182H18.228V9.4082Z" fill="#141414"/>
<path d="M22.638 9.4082H18.228V13.8182H22.638V9.4082Z" fill="#141414"/>
<path d="M31.458 9.4082H27.048V13.8182H31.458V9.4082Z" fill="#141414"/>
<path d="M44.688 9.4082H40.278V13.8182H44.688V9.4082Z" fill="#141414"/>
<path d="M66.738 9.4082H62.328V13.8182H66.738V9.4082Z" fill="#141414"/>
<path d="M79.968 9.4082H75.558V13.8182H79.968V9.4082Z" fill="#141414"/>
<path d="M84.378 9.4082H79.968V13.8182H84.378V9.4082Z" fill="#141414"/>
<path d="M97.608 9.4082H93.198V13.8182H97.608V9.4082Z" fill="#141414"/>
<path d="M102.018 9.4082H97.608V13.8182H102.018V9.4082Z" fill="#141414"/>
<path d="M106.428 9.4082H102.018V13.8182H106.428V9.4082Z" fill="#141414"/>
<path d="M110.838 9.4082H106.428V13.8182H110.838V9.4082Z" fill="#141414"/>
<path d="M119.658 9.4082H115.248V13.8182H119.658V9.4082Z" fill="#141414"/>
<path d="M128.478 9.4082H124.068V13.8182H128.478V9.4082Z" fill="#141414"/>
<path d="M132.888 9.4082H128.478V13.8182H132.888V9.4082Z" fill="#141414"/>
<path d="M137.298 9.4082H132.888V13.8182H137.298V9.4082Z" fill="#141414"/>
<path d="M146.118 9.4082H141.708V13.8182H146.118V9.4082Z" fill="#141414"/>
<path d="M4.99801 13.8179H0.588013V18.2279H4.99801V13.8179Z" fill="#141414"/>
<path d="M13.818 13.8179H9.40802V18.2279H13.818V13.8179Z" fill="#141414"/>
<path d="M18.228 13.8179H13.818V18.2279H18.228V13.8179Z" fill="#141414"/>
<path d="M22.638 13.8179H18.228V18.2279H22.638V13.8179Z" fill="#141414"/>
<path d="M31.458 13.8179H27.048V18.2279H31.458V13.8179Z" fill="#141414"/>
<path d="M44.688 13.8179H40.278V18.2279H44.688V13.8179Z" fill="#141414"/>
<path d="M62.328 13.8179H57.918V18.2279H62.328V13.8179Z" fill="#141414"/>
<path d="M71.148 13.8179H66.738V18.2279H71.148V13.8179Z" fill="#141414"/>
<path d="M75.558 13.8179H71.148V18.2279H75.558V13.8179Z" fill="#141414"/>
<path d="M88.788 13.8179H84.378V18.2279H88.788V13.8179Z" fill="#141414"/>
<path d="M93.198 13.8179H88.788V18.2279H93.198V13.8179Z" fill="#141414"/>
<path d="M102.018 13.8179H97.608V18.2279H102.018V13.8179Z" fill="#141414"/>
<path d="M110.838 13.8179H106.428V18.2279H110.838V13.8179Z" fill="#141414"/>
<path d="M119.658 13.8179H115.248V18.2279H119.658V13.8179Z" fill="#141414"/>
<path d="M128.478 13.8179H124.068V18.2279H128.478V13.8179Z" fill="#141414"/>
<path d="M132.888 13.8179H128.478V18.2279H132.888V13.8179Z" fill="#141414"/>
<path d="M137.298 13.8179H132.888V18.2279H137.298V13.8179Z" fill="#141414"/>
<path d="M146.118 13.8179H141.708V18.2279H146.118V13.8179Z" fill="#141414"/>
<path d="M4.99801 18.228H0.588013V22.638H4.99801V18.228Z" fill="#141414"/>
<path d="M13.818 18.228H9.40802V22.638H13.818V18.228Z" fill="#141414"/>
<path d="M18.228 18.228H13.818V22.638H18.228V18.228Z" fill="#141414"/>
<path d="M22.638 18.228H18.228V22.638H22.638V18.228Z" fill="#141414"/>
<path d="M31.458 18.228H27.048V22.638H31.458V18.228Z" fill="#141414"/>
<path d="M40.278 18.228H35.868V22.638H40.278V18.228Z" fill="#141414"/>
<path d="M57.918 18.228H53.508V22.638H57.918V18.228Z" fill="#141414"/>
<path d="M75.558 18.228H71.148V22.638H75.558V18.228Z" fill="#141414"/>
<path d="M79.968 18.228H75.558V22.638H79.968V18.228Z" fill="#141414"/>
<path d="M84.378 18.228H79.968V22.638H84.378V18.228Z" fill="#141414"/>
<path d="M93.198 18.228H88.788V22.638H93.198V18.228Z" fill="#141414"/>
<path d="M102.018 18.228H97.608V22.638H102.018V18.228Z" fill="#141414"/>
<path d="M106.428 18.228H102.018V22.638H106.428V18.228Z" fill="#141414"/>
<path d="M110.838 18.228H106.428V22.638H110.838V18.228Z" fill="#141414"/>
<path d="M119.658 18.228H115.248V22.638H119.658V18.228Z" fill="#141414"/>
<path d="M128.478 18.228H124.068V22.638H128.478V18.228Z" fill="#141414"/>
<path d="M132.888 18.228H128.478V22.638H132.888V18.228Z" fill="#141414"/>
<path d="M137.298 18.228H132.888V22.638H137.298V18.228Z" fill="#141414"/>
<path d="M146.118 18.228H141.708V22.638H146.118V18.228Z" fill="#141414"/>
<path d="M4.99801 22.6382H0.588013V27.0482H4.99801V22.6382Z" fill="#141414"/>
<path d="M31.458 22.6382H27.048V27.0482H31.458V22.6382Z" fill="#141414"/>
<path d="M49.098 22.6382H44.688V27.0482H49.098V22.6382Z" fill="#141414"/>
<path d="M53.508 22.6382H49.098V27.0482H53.508V22.6382Z" fill="#141414"/>
<path d="M62.328 22.6382H57.918V27.0482H62.328V22.6382Z" fill="#141414"/>
<path d="M71.148 22.6382H66.738V27.0482H71.148V22.6382Z" fill="#141414"/>
<path d="M84.378 22.6382H79.968V27.0482H84.378V22.6382Z" fill="#141414"/>
<path d="M93.198 22.6382H88.788V27.0482H93.198V22.6382Z" fill="#141414"/>
<path d="M97.608 22.6382H93.198V27.0482H97.608V22.6382Z" fill="#141414"/>
<path d="M106.428 22.6382H102.018V27.0482H106.428V22.6382Z" fill="#141414"/>
<path d="M119.658 22.6382H115.248V27.0482H119.658V22.6382Z" fill="#141414"/>
<path d="M146.118 22.6382H141.708V27.0482H146.118V22.6382Z" fill="#141414"/>
<path d="M4.99801 27.0479H0.588013V31.4579H4.99801V27.0479Z" fill="#141414"/>
<path d="M9.40799 27.0479H4.99799V31.4579H9.40799V27.0479Z" fill="#141414"/>
<path d="M13.818 27.0479H9.40802V31.4579H13.818V27.0479Z" fill="#141414"/>
<path d="M18.228 27.0479H13.818V31.4579H18.228V27.0479Z" fill="#141414"/>
<path d="M22.638 27.0479H18.228V31.4579H22.638V27.0479Z" fill="#141414"/>
<path d="M27.048 27.0479H22.638V31.4579H27.048V27.0479Z" fill="#141414"/>
<path d="M31.458 27.0479H27.048V31.4579H31.458V27.0479Z" fill="#141414"/>
<path d="M40.278 27.0479H35.868V31.4579H40.278V27.0479Z" fill="#141414"/>
<path d="M49.098 27.0479H44.688V31.4579H49.098V27.0479Z" fill="#141414"/>
<path d="M57.918 27.0479H53.508V31.4579H57.918V27.0479Z" fill="#141414"/>
<path d="M66.738 27.0479H62.328V31.4579H66.738V27.0479Z" fill="#141414"/>
<path d="M75.558 27.0479H71.148V31.4579H75.558V27.0479Z" fill="#141414"/>
<path d="M84.378 27.0479H79.968V31.4579H84.378V27.0479Z" fill="#141414"/>
<path d="M93.198 27.0479H88.788V31.4579H93.198V27.0479Z" fill="#141414"/>
<path d="M102.018 27.0479H97.608V31.4579H102.018V27.0479Z" fill="#141414"/>
<path d="M110.838 27.0479H106.428V31.4579H110.838V27.0479Z" fill="#141414"/>
<path d="M119.658 27.0479H115.248V31.4579H119.658V27.0479Z" fill="#141414"/>
<path d="M124.068 27.0479H119.658V31.4579H124.068V27.0479Z" fill="#141414"/>
<path d="M128.478 27.0479H124.068V31.4579H128.478V27.0479Z" fill="#141414"/>
<path d="M132.888 27.0479H128.478V31.4579H132.888V27.0479Z" fill="#141414"/>
<path d="M137.298 27.0479H132.888V31.4579H137.298V27.0479Z" fill="#141414"/>
<path d="M141.708 27.0479H137.298V31.4579H141.708V27.0479Z" fill="#141414"/>
<path d="M146.118 27.0479H141.708V31.4579H146.118V27.0479Z" fill="#141414"/>
<path d="M40.278 31.458H35.868V35.868H40.278V31.458Z" fill="#141414"/>
<path d="M57.918 31.458H53.508V35.868H57.918V31.458Z" fill="#141414"/>
<path d="M66.738 31.458H62.328V35.868H66.738V31.458Z" fill="#141414"/>
<path d="M71.148 31.458H66.738V35.868H71.148V31.458Z" fill="#141414"/>
<path d="M75.558 31.458H71.148V35.868H75.558V31.458Z" fill="#141414"/>
<path d="M88.788 31.458H84.378V35.868H88.788V31.458Z" fill="#141414"/>
<path d="M93.198 31.458H88.788V35.868H93.198V31.458Z" fill="#141414"/>
<path d="M97.608 31.458H93.198V35.868H97.608V31.458Z" fill="#141414"/>
<path d="M110.838 31.458H106.428V35.868H110.838V31.458Z" fill="#141414"/>
<path d="M13.818 35.8682H9.40802V40.2782H13.818V35.8682Z" fill="#141414"/>
<path d="M18.228 35.8682H13.818V40.2782H18.228V35.8682Z" fill="#141414"/>
<path d="M31.458 35.8682H27.048V40.2782H31.458V35.8682Z" fill="#141414"/>
<path d="M35.868 35.8682H31.458V40.2782H35.868V35.8682Z" fill="#141414"/>
<path d="M40.278 35.8682H35.868V40.2782H40.278V35.8682Z" fill="#141414"/>
<path d="M44.688 35.8682H40.278V40.2782H44.688V35.8682Z" fill="#141414"/>
<path d="M49.098 35.8682H44.688V40.2782H49.098V35.8682Z" fill="#141414"/>
<path d="M53.508 35.8682H49.098V40.2782H53.508V35.8682Z" fill="#141414"/>
<path d="M62.328 35.8682H57.918V40.2782H62.328V35.8682Z" fill="#141414"/>
<path d="M66.738 35.8682H62.328V40.2782H66.738V35.8682Z" fill="#141414"/>
<path d="M71.148 35.8682H66.738V40.2782H71.148V35.8682Z" fill="#141414"/>
<path d="M75.558 35.8682H71.148V40.2782H75.558V35.8682Z" fill="#141414"/>
<path d="M88.788 35.8682H84.378V40.2782H88.788V35.8682Z" fill="#141414"/>
<path d="M106.428 35.8682H102.018V40.2782H106.428V35.8682Z" fill="#141414"/>
<path d="M110.838 35.8682H106.428V40.2782H110.838V35.8682Z" fill="#141414"/>
<path d="M115.248 35.8682H110.838V40.2782H115.248V35.8682Z" fill="#141414"/>
<path d="M119.658 35.8682H115.248V40.2782H119.658V35.8682Z" fill="#141414"/>
<path d="M128.478 35.8682H124.068V40.2782H128.478V35.8682Z" fill="#141414"/>
<path d="M9.40799 40.2778H4.99799V44.6878H9.40799V40.2778Z" fill="#141414"/>
<path d="M22.638 40.2778H18.228V44.6878H22.638V40.2778Z" fill="#141414"/>
<path d="M27.048 40.2778H22.638V44.6878H27.048V40.2778Z" fill="#141414"/>
<path d="M35.868 40.2778H31.458V44.6878H35.868V40.2778Z" fill="#141414"/>
<path d="M44.688 40.2778H40.278V44.6878H44.688V40.2778Z" fill="#141414"/>
<path d="M57.918 40.2778H53.508V44.6878H57.918V40.2778Z" fill="#141414"/>
<path d="M66.738 40.2778H62.328V44.6878H66.738V40.2778Z" fill="#141414"/>
<path d="M71.148 40.2778H66.738V44.6878H71.148V40.2778Z" fill="#141414"/>
<path d="M75.558 40.2778H71.148V44.6878H75.558V40.2778Z" fill="#141414"/>
<path d="M84.378 40.2778H79.968V44.6878H84.378V40.2778Z" fill="#141414"/>
<path d="M97.608 40.2778H93.198V44.6878H97.608V40.2778Z" fill="#141414"/>
<path d="M106.428 40.2778H102.018V44.6878H106.428V40.2778Z" fill="#141414"/>
<path d="M115.248 40.2778H110.838V44.6878H115.248V40.2778Z" fill="#141414"/>
<path d="M119.658 40.2778H115.248V44.6878H119.658V40.2778Z" fill="#141414"/>
<path d="M132.888 40.2778H128.478V44.6878H132.888V40.2778Z" fill="#141414"/>
<path d="M137.298 40.2778H132.888V44.6878H137.298V40.2778Z" fill="#141414"/>
<path d="M27.048 44.688H22.638V49.098H27.048V44.688Z" fill="#141414"/>
<path d="M31.458 44.688H27.048V49.098H31.458V44.688Z" fill="#141414"/>
<path d="M53.508 44.688H49.098V49.098H53.508V44.688Z" fill="#141414"/>
<path d="M57.918 44.688H53.508V49.098H57.918V44.688Z" fill="#141414"/>
<path d="M62.328 44.688H57.918V49.098H62.328V44.688Z" fill="#141414"/>
<path d="M71.148 44.688H66.738V49.098H71.148V44.688Z" fill="#141414"/>
<path d="M79.968 44.688H75.558V49.098H79.968V44.688Z" fill="#141414"/>
<path d="M115.248 44.688H110.838V49.098H115.248V44.688Z" fill="#141414"/>
<path d="M119.658 44.688H115.248V49.098H119.658V44.688Z" fill="#141414"/>
<path d="M124.068 44.688H119.658V49.098H124.068V44.688Z" fill="#141414"/>
<path d="M128.478 44.688H124.068V49.098H128.478V44.688Z" fill="#141414"/>
<path d="M132.888 44.688H128.478V49.098H132.888V44.688Z" fill="#141414"/>
<path d="M141.708 44.688H137.298V49.098H141.708V44.688Z" fill="#141414"/>
<path d="M146.118 44.688H141.708V49.098H146.118V44.688Z" fill="#141414"/>
<path d="M4.99801 49.0981H0.588013V53.5081H4.99801V49.0981Z" fill="#141414"/>
<path d="M27.048 49.0981H22.638V53.5081H27.048V49.0981Z" fill="#141414"/>
<path d="M44.688 49.0981H40.278V53.5081H44.688V49.0981Z" fill="#141414"/>
<path d="M49.098 49.0981H44.688V53.5081H49.098V49.0981Z" fill="#141414"/>
<path d="M66.738 49.0981H62.328V53.5081H66.738V49.0981Z" fill="#141414"/>
<path d="M75.558 49.0981H71.148V53.5081H75.558V49.0981Z" fill="#141414"/>
<path d="M84.378 49.0981H79.968V53.5081H84.378V49.0981Z" fill="#141414"/>
<path d="M88.788 49.0981H84.378V53.5081H88.788V49.0981Z" fill="#141414"/>
<path d="M106.428 49.0981H102.018V53.5081H106.428V49.0981Z" fill="#141414"/>
<path d="M110.838 49.0981H106.428V53.5081H110.838V49.0981Z" fill="#141414"/>
<path d="M115.248 49.0981H110.838V53.5081H115.248V49.0981Z" fill="#141414"/>
<path d="M119.658 49.0981H115.248V53.5081H119.658V49.0981Z" fill="#141414"/>
<path d="M124.068 49.0981H119.658V53.5081H124.068V49.0981Z" fill="#141414"/>
<path d="M128.478 49.0981H124.068V53.5081H128.478V49.0981Z" fill="#141414"/>
<path d="M146.118 49.0981H141.708V53.5081H146.118V49.0981Z" fill="#141414"/>
<path d="M4.99801 53.5078H0.588013V57.9178H4.99801V53.5078Z" fill="#141414"/>
<path d="M13.818 53.5078H9.40802V57.9178H13.818V53.5078Z" fill="#141414"/>
<path d="M31.458 53.5078H27.048V57.9178H31.458V53.5078Z" fill="#141414"/>
<path d="M35.868 53.5078H31.458V57.9178H35.868V53.5078Z" fill="#141414"/>
<path d="M53.508 53.5078H49.098V57.9178H53.508V53.5078Z" fill="#141414"/>
<path d="M62.328 53.5078H57.918V57.9178H62.328V53.5078Z" fill="#141414"/>
<path d="M71.148 53.5078H66.738V57.9178H71.148V53.5078Z" fill="#141414"/>
<path d="M75.558 53.5078H71.148V57.9178H75.558V53.5078Z" fill="#141414"/>
<path d="M93.198 53.5078H88.788V57.9178H93.198V53.5078Z" fill="#141414"/>
<path d="M97.608 53.5078H93.198V57.9178H97.608V53.5078Z" fill="#141414"/>
<path d="M115.248 53.5078H110.838V57.9178H115.248V53.5078Z" fill="#141414"/>
<path d="M137.298 53.5078H132.888V57.9178H137.298V53.5078Z" fill="#141414"/>
<path d="M141.708 53.5078H137.298V57.9178H141.708V53.5078Z" fill="#141414"/>
<path d="M9.40799 57.918H4.99799V62.328H9.40799V57.918Z" fill="#141414"/>
<path d="M35.868 57.918H31.458V62.328H35.868V57.918Z" fill="#141414"/>
<path d="M53.508 57.918H49.098V62.328H53.508V57.918Z" fill="#141414"/>
<path d="M71.148 57.918H66.738V62.328H71.148V57.918Z" fill="#141414"/>
<path d="M79.968 57.918H75.558V62.328H79.968V57.918Z" fill="#141414"/>
<path d="M84.378 57.918H79.968V62.328H84.378V57.918Z" fill="#141414"/>
<path d="M93.198 57.918H88.788V62.328H93.198V57.918Z" fill="#141414"/>
<path d="M102.018 57.918H97.608V62.328H102.018V57.918Z" fill="#141414"/>
<path d="M115.248 57.918H110.838V62.328H115.248V57.918Z" fill="#141414"/>
<path d="M119.658 57.918H115.248V62.328H119.658V57.918Z" fill="#141414"/>
<path d="M132.888 57.918H128.478V62.328H132.888V57.918Z" fill="#141414"/>
<path d="M146.118 57.918H141.708V62.328H146.118V57.918Z" fill="#141414"/>
<path d="M4.99801 62.3281H0.588013V66.7381H4.99801V62.3281Z" fill="#141414"/>
<path d="M13.818 62.3281H9.40802V66.7381H13.818V62.3281Z" fill="#141414"/>
<path d="M22.638 62.3281H18.228V66.7381H22.638V62.3281Z" fill="#141414"/>
<path d="M27.048 62.3281H22.638V66.7381H27.048V62.3281Z" fill="#141414"/>
<path d="M31.458 62.3281H27.048V66.7381H31.458V62.3281Z" fill="#141414"/>
<path d="M44.688 62.3281H40.278V66.7381H44.688V62.3281Z" fill="#141414"/>
<path d="M75.558 62.3281H71.148V66.7381H75.558V62.3281Z" fill="#141414"/>
<path d="M88.788 62.3281H84.378V66.7381H88.788V62.3281Z" fill="#141414"/>
<path d="M97.608 62.3281H93.198V66.7381H97.608V62.3281Z" fill="#141414"/>
<path d="M124.068 62.3281H119.658V66.7381H124.068V62.3281Z" fill="#141414"/>
<path d="M128.478 62.3281H124.068V66.7381H128.478V62.3281Z" fill="#141414"/>
<path d="M4.99801 66.7378H0.588013V71.1478H4.99801V66.7378Z" fill="#141414"/>
<path d="M18.228 66.7378H13.818V71.1478H18.228V66.7378Z" fill="#141414"/>
<path d="M35.868 66.7378H31.458V71.1478H35.868V66.7378Z" fill="#141414"/>
<path d="M40.278 66.7378H35.868V71.1478H40.278V66.7378Z" fill="#141414"/>
<path d="M44.688 66.7378H40.278V71.1478H44.688V66.7378Z" fill="#141414"/>
<path d="M57.918 66.7378H53.508V71.1478H57.918V66.7378Z" fill="#141414"/>
<path d="M66.738 66.7378H62.328V71.1478H66.738V66.7378Z" fill="#141414"/>
<path d="M71.148 66.7378H66.738V71.1478H71.148V66.7378Z" fill="#141414"/>
<path d="M79.968 66.7378H75.558V71.1478H79.968V66.7378Z" fill="#141414"/>
<path d="M88.788 66.7378H84.378V71.1478H88.788V66.7378Z" fill="#141414"/>
<path d="M93.198 66.7378H88.788V71.1478H93.198V66.7378Z" fill="#141414"/>
<path d="M106.428 66.7378H102.018V71.1478H106.428V66.7378Z" fill="#141414"/>
<path d="M119.658 66.7378H115.248V71.1478H119.658V66.7378Z" fill="#141414"/>
<path d="M124.068 66.7378H119.658V71.1478H124.068V66.7378Z" fill="#141414"/>
<path d="M137.298 66.7378H132.888V71.1478H137.298V66.7378Z" fill="#141414"/>
<path d="M146.118 66.7378H141.708V71.1478H146.118V66.7378Z" fill="#141414"/>
<path d="M4.99801 71.1479H0.588013V75.5579H4.99801V71.1479Z" fill="#141414"/>
<path d="M18.228 71.1479H13.818V75.5579H18.228V71.1479Z" fill="#141414"/>
<path d="M22.638 71.1479H18.228V75.5579H22.638V71.1479Z" fill="#141414"/>
<path d="M27.048 71.1479H22.638V75.5579H27.048V71.1479Z" fill="#141414"/>
<path d="M31.458 71.1479H27.048V75.5579H31.458V71.1479Z" fill="#141414"/>
<path d="M35.868 71.1479H31.458V75.5579H35.868V71.1479Z" fill="#141414"/>
<path d="M44.688 71.1479H40.278V75.5579H44.688V71.1479Z" fill="#141414"/>
<path d="M53.508 71.1479H49.098V75.5579H53.508V71.1479Z" fill="#141414"/>
<path d="M57.918 71.1479H53.508V75.5579H57.918V71.1479Z" fill="#141414"/>
<path d="M62.328 71.1479H57.918V75.5579H62.328V71.1479Z" fill="#141414"/>
<path d="M79.968 71.1479H75.558V75.5579H79.968V71.1479Z" fill="#141414"/>
<path d="M84.378 71.1479H79.968V75.5579H84.378V71.1479Z" fill="#141414"/>
<path d="M88.788 71.1479H84.378V75.5579H88.788V71.1479Z" fill="#141414"/>
<path d="M93.198 71.1479H88.788V75.5579H93.198V71.1479Z" fill="#141414"/>
<path d="M97.608 71.1479H93.198V75.5579H97.608V71.1479Z" fill="#141414"/>
<path d="M102.018 71.1479H97.608V75.5579H102.018V71.1479Z" fill="#141414"/>
<path d="M106.428 71.1479H102.018V75.5579H106.428V71.1479Z" fill="#141414"/>
<path d="M119.658 71.1479H115.248V75.5579H119.658V71.1479Z" fill="#141414"/>
<path d="M128.478 71.1479H124.068V75.5579H128.478V71.1479Z" fill="#141414"/>
<path d="M132.888 71.1479H128.478V75.5579H132.888V71.1479Z" fill="#141414"/>
<path d="M13.818 75.5581H9.40802V79.9681H13.818V75.5581Z" fill="#141414"/>
<path d="M18.228 75.5581H13.818V79.9681H18.228V75.5581Z" fill="#141414"/>
<path d="M22.638 75.5581H18.228V79.9681H22.638V75.5581Z" fill="#141414"/>
<path d="M27.048 75.5581H22.638V79.9681H27.048V75.5581Z" fill="#141414"/>
<path d="M44.688 75.5581H40.278V79.9681H44.688V75.5581Z" fill="#141414"/>
<path d="M62.328 75.5581H57.918V79.9681H62.328V75.5581Z" fill="#141414"/>
<path d="M71.148 75.5581H66.738V79.9681H71.148V75.5581Z" fill="#141414"/>
<path d="M75.558 75.5581H71.148V79.9681H75.558V75.5581Z" fill="#141414"/>
<path d="M79.968 75.5581H75.558V79.9681H79.968V75.5581Z" fill="#141414"/>
<path d="M88.788 75.5581H84.378V79.9681H88.788V75.5581Z" fill="#141414"/>
<path d="M106.428 75.5581H102.018V79.9681H106.428V75.5581Z" fill="#141414"/>
<path d="M110.838 75.5581H106.428V79.9681H110.838V75.5581Z" fill="#141414"/>
<path d="M124.068 75.5581H119.658V79.9681H124.068V75.5581Z" fill="#141414"/>
<path d="M146.118 75.5581H141.708V79.9681H146.118V75.5581Z" fill="#141414"/>
<path d="M18.228 79.9678H13.818V84.3778H18.228V79.9678Z" fill="#141414"/>
<path d="M31.458 79.9678H27.048V84.3778H31.458V79.9678Z" fill="#141414"/>
<path d="M35.868 79.9678H31.458V84.3778H35.868V79.9678Z" fill="#141414"/>
<path d="M40.278 79.9678H35.868V84.3778H40.278V79.9678Z" fill="#141414"/>
<path d="M44.688 79.9678H40.278V84.3778H44.688V79.9678Z" fill="#141414"/>
<path d="M57.918 79.9678H53.508V84.3778H57.918V79.9678Z" fill="#141414"/>
<path d="M62.328 79.9678H57.918V84.3778H62.328V79.9678Z" fill="#141414"/>
<path d="M66.738 79.9678H62.328V84.3778H66.738V79.9678Z" fill="#141414"/>
<path d="M71.148 79.9678H66.738V84.3778H71.148V79.9678Z" fill="#141414"/>
<path d="M75.558 79.9678H71.148V84.3778H75.558V79.9678Z" fill="#141414"/>
<path d="M79.968 79.9678H75.558V84.3778H79.968V79.9678Z" fill="#141414"/>
<path d="M84.378 79.9678H79.968V84.3778H84.378V79.9678Z" fill="#141414"/>
<path d="M93.198 79.9678H88.788V84.3778H93.198V79.9678Z" fill="#141414"/>
<path d="M102.018 79.9678H97.608V84.3778H102.018V79.9678Z" fill="#141414"/>
<path d="M106.428 79.9678H102.018V84.3778H106.428V79.9678Z" fill="#141414"/>
<path d="M110.838 79.9678H106.428V84.3778H110.838V79.9678Z" fill="#141414"/>
<path d="M115.248 79.9678H110.838V84.3778H115.248V79.9678Z" fill="#141414"/>
<path d="M119.658 79.9678H115.248V84.3778H119.658V79.9678Z" fill="#141414"/>
<path d="M124.068 79.9678H119.658V84.3778H124.068V79.9678Z" fill="#141414"/>
<path d="M128.478 79.9678H124.068V84.3778H128.478V79.9678Z" fill="#141414"/>
<path d="M132.888 79.9678H128.478V84.3778H132.888V79.9678Z" fill="#141414"/>
<path d="M137.298 79.9678H132.888V84.3778H137.298V79.9678Z" fill="#141414"/>
<path d="M141.708 79.9678H137.298V84.3778H141.708V79.9678Z" fill="#141414"/>
<path d="M4.99801 84.3779H0.588013V88.7879H4.99801V84.3779Z" fill="#141414"/>
<path d="M13.818 84.3779H9.40802V88.7879H13.818V84.3779Z" fill="#141414"/>
<path d="M27.048 84.3779H22.638V88.7879H27.048V84.3779Z" fill="#141414"/>
<path d="M35.868 84.3779H31.458V88.7879H35.868V84.3779Z" fill="#141414"/>
<path d="M49.098 84.3779H44.688V88.7879H49.098V84.3779Z" fill="#141414"/>
<path d="M75.558 84.3779H71.148V88.7879H75.558V84.3779Z" fill="#141414"/>
<path d="M88.788 84.3779H84.378V88.7879H88.788V84.3779Z" fill="#141414"/>
<path d="M93.198 84.3779H88.788V88.7879H93.198V84.3779Z" fill="#141414"/>
<path d="M97.608 84.3779H93.198V88.7879H97.608V84.3779Z" fill="#141414"/>
<path d="M124.068 84.3779H119.658V88.7879H124.068V84.3779Z" fill="#141414"/>
<path d="M132.888 84.3779H128.478V88.7879H132.888V84.3779Z" fill="#141414"/>
<path d="M137.298 84.3779H132.888V88.7879H137.298V84.3779Z" fill="#141414"/>
<path d="M4.99801 88.7881H0.588013V93.1981H4.99801V88.7881Z" fill="#141414"/>
<path d="M13.818 88.7881H9.40802V93.1981H13.818V88.7881Z" fill="#141414"/>
<path d="M22.638 88.7881H18.228V93.1981H22.638V88.7881Z" fill="#141414"/>
<path d="M31.458 88.7881H27.048V93.1981H31.458V88.7881Z" fill="#141414"/>
<path d="M35.868 88.7881H31.458V93.1981H35.868V88.7881Z" fill="#141414"/>
<path d="M44.688 88.7881H40.278V93.1981H44.688V88.7881Z" fill="#141414"/>
<path d="M53.508 88.7881H49.098V93.1981H53.508V88.7881Z" fill="#141414"/>
<path d="M57.918 88.7881H53.508V93.1981H57.918V88.7881Z" fill="#141414"/>
<path d="M62.328 88.7881H57.918V93.1981H62.328V88.7881Z" fill="#141414"/>
<path d="M79.968 88.7881H75.558V93.1981H79.968V88.7881Z" fill="#141414"/>
<path d="M88.788 88.7881H84.378V93.1981H88.788V88.7881Z" fill="#141414"/>
<path d="M93.198 88.7881H88.788V93.1981H93.198V88.7881Z" fill="#141414"/>
<path d="M110.838 88.7881H106.428V93.1981H110.838V88.7881Z" fill="#141414"/>
<path d="M119.658 88.7881H115.248V93.1981H119.658V88.7881Z" fill="#141414"/>
<path d="M132.888 88.7881H128.478V93.1981H132.888V88.7881Z" fill="#141414"/>
<path d="M4.99801 93.1982H0.588013V97.6082H4.99801V93.1982Z" fill="#141414"/>
<path d="M9.40799 93.1982H4.99799V97.6082H9.40799V93.1982Z" fill="#141414"/>
<path d="M18.228 93.1982H13.818V97.6082H18.228V93.1982Z" fill="#141414"/>
<path d="M22.638 93.1982H18.228V97.6082H22.638V93.1982Z" fill="#141414"/>
<path d="M27.048 93.1982H22.638V97.6082H27.048V93.1982Z" fill="#141414"/>
<path d="M40.278 93.1982H35.868V97.6082H40.278V93.1982Z" fill="#141414"/>
<path d="M44.688 93.1982H40.278V97.6082H44.688V93.1982Z" fill="#141414"/>
<path d="M53.508 93.1982H49.098V97.6082H53.508V93.1982Z" fill="#141414"/>
<path d="M57.918 93.1982H53.508V97.6082H57.918V93.1982Z" fill="#141414"/>
<path d="M62.328 93.1982H57.918V97.6082H62.328V93.1982Z" fill="#141414"/>
<path d="M84.378 93.1982H79.968V97.6082H84.378V93.1982Z" fill="#141414"/>
<path d="M88.788 93.1982H84.378V97.6082H88.788V93.1982Z" fill="#141414"/>
<path d="M93.198 93.1982H88.788V97.6082H93.198V93.1982Z" fill="#141414"/>
<path d="M97.608 93.1982H93.198V97.6082H97.608V93.1982Z" fill="#141414"/>
<path d="M102.018 93.1982H97.608V97.6082H102.018V93.1982Z" fill="#141414"/>
<path d="M110.838 93.1982H106.428V97.6082H110.838V93.1982Z" fill="#141414"/>
<path d="M124.068 93.1982H119.658V97.6082H124.068V93.1982Z" fill="#141414"/>
<path d="M132.888 93.1982H128.478V97.6082H132.888V93.1982Z" fill="#141414"/>
<path d="M137.298 93.1982H132.888V97.6082H137.298V93.1982Z" fill="#141414"/>
<path d="M141.708 93.1982H137.298V97.6082H141.708V93.1982Z" fill="#141414"/>
<path d="M146.118 93.1982H141.708V97.6082H146.118V93.1982Z" fill="#141414"/>
<path d="M22.638 97.6079H18.228V102.018H22.638V97.6079Z" fill="#141414"/>
<path d="M27.048 97.6079H22.638V102.018H27.048V97.6079Z" fill="#141414"/>
<path d="M31.458 97.6079H27.048V102.018H31.458V97.6079Z" fill="#141414"/>
<path d="M35.868 97.6079H31.458V102.018H35.868V97.6079Z" fill="#141414"/>
<path d="M40.278 97.6079H35.868V102.018H40.278V97.6079Z" fill="#141414"/>
<path d="M53.508 97.6079H49.098V102.018H53.508V97.6079Z" fill="#141414"/>
<path d="M57.918 97.6079H53.508V102.018H57.918V97.6079Z" fill="#141414"/>
<path d="M62.328 97.6079H57.918V102.018H62.328V97.6079Z" fill="#141414"/>
<path d="M71.148 97.6079H66.738V102.018H71.148V97.6079Z" fill="#141414"/>
<path d="M75.558 97.6079H71.148V102.018H75.558V97.6079Z" fill="#141414"/>
<path d="M79.968 97.6079H75.558V102.018H79.968V97.6079Z" fill="#141414"/>
<path d="M88.788 97.6079H84.378V102.018H88.788V97.6079Z" fill="#141414"/>
<path d="M93.198 97.6079H88.788V102.018H93.198V97.6079Z" fill="#141414"/>
<path d="M97.608 97.6079H93.198V102.018H97.608V97.6079Z" fill="#141414"/>
<path d="M102.018 97.6079H97.608V102.018H102.018V97.6079Z" fill="#141414"/>
<path d="M106.428 97.6079H102.018V102.018H106.428V97.6079Z" fill="#141414"/>
<path d="M110.838 97.6079H106.428V102.018H110.838V97.6079Z" fill="#141414"/>
<path d="M115.248 97.6079H110.838V102.018H115.248V97.6079Z" fill="#141414"/>
<path d="M119.658 97.6079H115.248V102.018H119.658V97.6079Z" fill="#141414"/>
<path d="M128.478 97.6079H124.068V102.018H128.478V97.6079Z" fill="#141414"/>
<path d="M137.298 97.6079H132.888V102.018H137.298V97.6079Z" fill="#141414"/>
<path d="M141.708 97.6079H137.298V102.018H141.708V97.6079Z" fill="#141414"/>
<path d="M9.40799 102.018H4.99799V106.428H9.40799V102.018Z" fill="#141414"/>
<path d="M18.228 102.018H13.818V106.428H18.228V102.018Z" fill="#141414"/>
<path d="M22.638 102.018H18.228V106.428H22.638V102.018Z" fill="#141414"/>
<path d="M35.868 102.018H31.458V106.428H35.868V102.018Z" fill="#141414"/>
<path d="M44.688 102.018H40.278V106.428H44.688V102.018Z" fill="#141414"/>
<path d="M66.738 102.018H62.328V106.428H66.738V102.018Z" fill="#141414"/>
<path d="M71.148 102.018H66.738V106.428H71.148V102.018Z" fill="#141414"/>
<path d="M79.968 102.018H75.558V106.428H79.968V102.018Z" fill="#141414"/>
<path d="M88.788 102.018H84.378V106.428H88.788V102.018Z" fill="#141414"/>
<path d="M102.018 102.018H97.608V106.428H102.018V102.018Z" fill="#141414"/>
<path d="M119.658 102.018H115.248V106.428H119.658V102.018Z" fill="#141414"/>
<path d="M124.068 102.018H119.658V106.428H124.068V102.018Z" fill="#141414"/>
<path d="M128.478 102.018H124.068V106.428H128.478V102.018Z" fill="#141414"/>
<path d="M132.888 102.018H128.478V106.428H132.888V102.018Z" fill="#141414"/>
<path d="M141.708 102.018H137.298V106.428H141.708V102.018Z" fill="#141414"/>
<path d="M146.118 102.018H141.708V106.428H146.118V102.018Z" fill="#141414"/>
<path d="M4.99801 106.428H0.588013V110.838H4.99801V106.428Z" fill="#141414"/>
<path d="M13.818 106.428H9.40802V110.838H13.818V106.428Z" fill="#141414"/>
<path d="M18.228 106.428H13.818V110.838H18.228V106.428Z" fill="#141414"/>
<path d="M27.048 106.428H22.638V110.838H27.048V106.428Z" fill="#141414"/>
<path d="M31.458 106.428H27.048V110.838H31.458V106.428Z" fill="#141414"/>
<path d="M35.868 106.428H31.458V110.838H35.868V106.428Z" fill="#141414"/>
<path d="M49.098 106.428H44.688V110.838H49.098V106.428Z" fill="#141414"/>
<path d="M57.918 106.428H53.508V110.838H57.918V106.428Z" fill="#141414"/>
<path d="M71.148 106.428H66.738V110.838H71.148V106.428Z" fill="#141414"/>
<path d="M75.558 106.428H71.148V110.838H75.558V106.428Z" fill="#141414"/>
<path d="M84.378 106.428H79.968V110.838H84.378V106.428Z" fill="#141414"/>
<path d="M88.788 106.428H84.378V110.838H88.788V106.428Z" fill="#141414"/>
<path d="M97.608 106.428H93.198V110.838H97.608V106.428Z" fill="#141414"/>
<path d="M102.018 106.428H97.608V110.838H102.018V106.428Z" fill="#141414"/>
<path d="M110.838 106.428H106.428V110.838H110.838V106.428Z" fill="#141414"/>
<path d="M115.248 106.428H110.838V110.838H115.248V106.428Z" fill="#141414"/>
<path d="M119.658 106.428H115.248V110.838H119.658V106.428Z" fill="#141414"/>
<path d="M124.068 106.428H119.658V110.838H124.068V106.428Z" fill="#141414"/>
<path d="M128.478 106.428H124.068V110.838H128.478V106.428Z" fill="#141414"/>
<path d="M132.888 106.428H128.478V110.838H132.888V106.428Z" fill="#141414"/>
<path d="M137.298 106.428H132.888V110.838H137.298V106.428Z" fill="#141414"/>
<path d="M40.278 110.838H35.868V115.248H40.278V110.838Z" fill="#141414"/>
<path d="M53.508 110.838H49.098V115.248H53.508V110.838Z" fill="#141414"/>
<path d="M57.918 110.838H53.508V115.248H57.918V110.838Z" fill="#141414"/>
<path d="M62.328 110.838H57.918V115.248H62.328V110.838Z" fill="#141414"/>
<path d="M75.558 110.838H71.148V115.248H75.558V110.838Z" fill="#141414"/>
<path d="M79.968 110.838H75.558V115.248H79.968V110.838Z" fill="#141414"/>
<path d="M88.788 110.838H84.378V115.248H88.788V110.838Z" fill="#141414"/>
<path d="M93.198 110.838H88.788V115.248H93.198V110.838Z" fill="#141414"/>
<path d="M97.608 110.838H93.198V115.248H97.608V110.838Z" fill="#141414"/>
<path d="M102.018 110.838H97.608V115.248H102.018V110.838Z" fill="#141414"/>
<path d="M106.428 110.838H102.018V115.248H106.428V110.838Z" fill="#141414"/>
<path d="M110.838 110.838H106.428V115.248H110.838V110.838Z" fill="#141414"/>
<path d="M128.478 110.838H124.068V115.248H128.478V110.838Z" fill="#141414"/>
<path d="M141.708 110.838H137.298V115.248H141.708V110.838Z" fill="#141414"/>
<path d="M146.118 110.838H141.708V115.248H146.118V110.838Z" fill="#141414"/>
<path d="M4.99801 115.248H0.588013V119.658H4.99801V115.248Z" fill="#141414"/>
<path d="M9.40799 115.248H4.99799V119.658H9.40799V115.248Z" fill="#141414"/>
<path d="M13.818 115.248H9.40802V119.658H13.818V115.248Z" fill="#141414"/>
<path d="M18.228 115.248H13.818V119.658H18.228V115.248Z" fill="#141414"/>
<path d="M22.638 115.248H18.228V119.658H22.638V115.248Z" fill="#141414"/>
<path d="M27.048 115.248H22.638V119.658H27.048V115.248Z" fill="#141414"/>
<path d="M31.458 115.248H27.048V119.658H31.458V115.248Z" fill="#141414"/>
<path d="M40.278 115.248H35.868V119.658H40.278V115.248Z" fill="#141414"/>
<path d="M44.688 115.248H40.278V119.658H44.688V115.248Z" fill="#141414"/>
<path d="M53.508 115.248H49.098V119.658H53.508V115.248Z" fill="#141414"/>
<path d="M62.328 115.248H57.918V119.658H62.328V115.248Z" fill="#141414"/>
<path d="M71.148 115.248H66.738V119.658H71.148V115.248Z" fill="#141414"/>
<path d="M79.968 115.248H75.558V119.658H79.968V115.248Z" fill="#141414"/>
<path d="M84.378 115.248H79.968V119.658H84.378V115.248Z" fill="#141414"/>
<path d="M88.788 115.248H84.378V119.658H88.788V115.248Z" fill="#141414"/>
<path d="M93.198 115.248H88.788V119.658H93.198V115.248Z" fill="#141414"/>
<path d="M97.608 115.248H93.198V119.658H97.608V115.248Z" fill="#141414"/>
<path d="M110.838 115.248H106.428V119.658H110.838V115.248Z" fill="#141414"/>
<path d="M119.658 115.248H115.248V119.658H119.658V115.248Z" fill="#141414"/>
<path d="M128.478 115.248H124.068V119.658H128.478V115.248Z" fill="#141414"/>
<path d="M4.99801 119.658H0.588013V124.068H4.99801V119.658Z" fill="#141414"/>
<path d="M31.458 119.658H27.048V124.068H31.458V119.658Z" fill="#141414"/>
<path d="M44.688 119.658H40.278V124.068H44.688V119.658Z" fill="#141414"/>
<path d="M49.098 119.658H44.688V124.068H49.098V119.658Z" fill="#141414"/>
<path d="M57.918 119.658H53.508V124.068H57.918V119.658Z" fill="#141414"/>
<path d="M62.328 119.658H57.918V124.068H62.328V119.658Z" fill="#141414"/>
<path d="M66.738 119.658H62.328V124.068H66.738V119.658Z" fill="#141414"/>
<path d="M75.558 119.658H71.148V124.068H75.558V119.658Z" fill="#141414"/>
<path d="M79.968 119.658H75.558V124.068H79.968V119.658Z" fill="#141414"/>
<path d="M88.788 119.658H84.378V124.068H88.788V119.658Z" fill="#141414"/>
<path d="M106.428 119.658H102.018V124.068H106.428V119.658Z" fill="#141414"/>
<path d="M110.838 119.658H106.428V124.068H110.838V119.658Z" fill="#141414"/>
<path d="M128.478 119.658H124.068V124.068H128.478V119.658Z" fill="#141414"/>
<path d="M137.298 119.658H132.888V124.068H137.298V119.658Z" fill="#141414"/>
<path d="M141.708 119.658H137.298V124.068H141.708V119.658Z" fill="#141414"/>
<path d="M146.118 119.658H141.708V124.068H146.118V119.658Z" fill="#141414"/>
<path d="M4.99801 124.068H0.588013V128.478H4.99801V124.068Z" fill="#141414"/>
<path d="M13.818 124.068H9.40802V128.478H13.818V124.068Z" fill="#141414"/>
<path d="M18.228 124.068H13.818V128.478H18.228V124.068Z" fill="#141414"/>
<path d="M22.638 124.068H18.228V128.478H22.638V124.068Z" fill="#141414"/>
<path d="M31.458 124.068H27.048V128.478H31.458V124.068Z" fill="#141414"/>
<path d="M44.688 124.068H40.278V128.478H44.688V124.068Z" fill="#141414"/>
<path d="M53.508 124.068H49.098V128.478H53.508V124.068Z" fill="#141414"/>
<path d="M57.918 124.068H53.508V128.478H57.918V124.068Z" fill="#141414"/>
<path d="M71.148 124.068H66.738V128.478H71.148V124.068Z" fill="#141414"/>
<path d="M93.198 124.068H88.788V128.478H93.198V124.068Z" fill="#141414"/>
<path d="M102.018 124.068H97.608V128.478H102.018V124.068Z" fill="#141414"/>
<path d="M106.428 124.068H102.018V128.478H106.428V124.068Z" fill="#141414"/>
<path d="M110.838 124.068H106.428V128.478H110.838V124.068Z" fill="#141414"/>
<path d="M115.248 124.068H110.838V128.478H115.248V124.068Z" fill="#141414"/>
<path d="M119.658 124.068H115.248V128.478H119.658V124.068Z" fill="#141414"/>
<path d="M124.068 124.068H119.658V128.478H124.068V124.068Z" fill="#141414"/>
<path d="M128.478 124.068H124.068V128.478H128.478V124.068Z" fill="#141414"/>
<path d="M141.708 124.068H137.298V128.478H141.708V124.068Z" fill="#141414"/>
<path d="M146.118 124.068H141.708V128.478H146.118V124.068Z" fill="#141414"/>
<path d="M4.99801 128.478H0.588013V132.888H4.99801V128.478Z" fill="#141414"/>
<path d="M13.818 128.478H9.40802V132.888H13.818V128.478Z" fill="#141414"/>
<path d="M18.228 128.478H13.818V132.888H18.228V128.478Z" fill="#141414"/>
<path d="M22.638 128.478H18.228V132.888H22.638V128.478Z" fill="#141414"/>
<path d="M31.458 128.478H27.048V132.888H31.458V128.478Z" fill="#141414"/>
<path d="M40.278 128.478H35.868V132.888H40.278V128.478Z" fill="#141414"/>
<path d="M44.688 128.478H40.278V132.888H44.688V128.478Z" fill="#141414"/>
<path d="M49.098 128.478H44.688V132.888H49.098V128.478Z" fill="#141414"/>
<path d="M53.508 128.478H49.098V132.888H53.508V128.478Z" fill="#141414"/>
<path d="M66.738 128.478H62.328V132.888H66.738V128.478Z" fill="#141414"/>
<path d="M93.198 128.478H88.788V132.888H93.198V128.478Z" fill="#141414"/>
<path d="M102.018 128.478H97.608V132.888H102.018V128.478Z" fill="#141414"/>
<path d="M106.428 128.478H102.018V132.888H106.428V128.478Z" fill="#141414"/>
<path d="M110.838 128.478H106.428V132.888H110.838V128.478Z" fill="#141414"/>
<path d="M124.068 128.478H119.658V132.888H124.068V128.478Z" fill="#141414"/>
<path d="M132.888 128.478H128.478V132.888H132.888V128.478Z" fill="#141414"/>
<path d="M137.298 128.478H132.888V132.888H137.298V128.478Z" fill="#141414"/>
<path d="M4.99801 132.888H0.588013V137.298H4.99801V132.888Z" fill="#141414"/>
<path d="M13.818 132.888H9.40802V137.298H13.818V132.888Z" fill="#141414"/>
<path d="M18.228 132.888H13.818V137.298H18.228V132.888Z" fill="#141414"/>
<path d="M22.638 132.888H18.228V137.298H22.638V132.888Z" fill="#141414"/>
<path d="M31.458 132.888H27.048V137.298H31.458V132.888Z" fill="#141414"/>
<path d="M40.278 132.888H35.868V137.298H40.278V132.888Z" fill="#141414"/>
<path d="M44.688 132.888H40.278V137.298H44.688V132.888Z" fill="#141414"/>
<path d="M49.098 132.888H44.688V137.298H49.098V132.888Z" fill="#141414"/>
<path d="M57.918 132.888H53.508V137.298H57.918V132.888Z" fill="#141414"/>
<path d="M66.738 132.888H62.328V137.298H66.738V132.888Z" fill="#141414"/>
<path d="M79.968 132.888H75.558V137.298H79.968V132.888Z" fill="#141414"/>
<path d="M84.378 132.888H79.968V137.298H84.378V132.888Z" fill="#141414"/>
<path d="M97.608 132.888H93.198V137.298H97.608V132.888Z" fill="#141414"/>
<path d="M102.018 132.888H97.608V137.298H102.018V132.888Z" fill="#141414"/>
<path d="M106.428 132.888H102.018V137.298H106.428V132.888Z" fill="#141414"/>
<path d="M110.838 132.888H106.428V137.298H110.838V132.888Z" fill="#141414"/>
<path d="M115.248 132.888H110.838V137.298H115.248V132.888Z" fill="#141414"/>
<path d="M119.658 132.888H115.248V137.298H119.658V132.888Z" fill="#141414"/>
<path d="M4.99801 137.298H0.588013V141.708H4.99801V137.298Z" fill="#141414"/>
<path d="M31.458 137.298H27.048V141.708H31.458V137.298Z" fill="#141414"/>
<path d="M49.098 137.298H44.688V141.708H49.098V137.298Z" fill="#141414"/>
<path d="M53.508 137.298H49.098V141.708H53.508V137.298Z" fill="#141414"/>
<path d="M75.558 137.298H71.148V141.708H75.558V137.298Z" fill="#141414"/>
<path d="M84.378 137.298H79.968V141.708H84.378V137.298Z" fill="#141414"/>
<path d="M88.788 137.298H84.378V141.708H88.788V137.298Z" fill="#141414"/>
<path d="M106.428 137.298H102.018V141.708H106.428V137.298Z" fill="#141414"/>
<path d="M110.838 137.298H106.428V141.708H110.838V137.298Z" fill="#141414"/>
<path d="M119.658 137.298H115.248V141.708H119.658V137.298Z" fill="#141414"/>
<path d="M124.068 137.298H119.658V141.708H124.068V137.298Z" fill="#141414"/>
<path d="M128.478 137.298H124.068V141.708H128.478V137.298Z" fill="#141414"/>
<path d="M137.298 137.298H132.888V141.708H137.298V137.298Z" fill="#141414"/>
<path d="M141.708 137.298H137.298V141.708H141.708V137.298Z" fill="#141414"/>
<path d="M4.99801 141.708H0.588013V146.118H4.99801V141.708Z" fill="#141414"/>
<path d="M9.40799 141.708H4.99799V146.118H9.40799V141.708Z" fill="#141414"/>
<path d="M13.818 141.708H9.40802V146.118H13.818V141.708Z" fill="#141414"/>
<path d="M18.228 141.708H13.818V146.118H18.228V141.708Z" fill="#141414"/>
<path d="M22.638 141.708H18.228V146.118H22.638V141.708Z" fill="#141414"/>
<path d="M27.048 141.708H22.638V146.118H27.048V141.708Z" fill="#141414"/>
<path d="M31.458 141.708H27.048V146.118H31.458V141.708Z" fill="#141414"/>
<path d="M44.688 141.708H40.278V146.118H44.688V141.708Z" fill="#141414"/>
<path d="M57.918 141.708H53.508V146.118H57.918V141.708Z" fill="#141414"/>
<path d="M62.328 141.708H57.918V146.118H62.328V141.708Z" fill="#141414"/>
<path d="M75.558 141.708H71.148V146.118H75.558V141.708Z" fill="#141414"/>
<path d="M79.968 141.708H75.558V146.118H79.968V141.708Z" fill="#141414"/>
<path d="M84.378 141.708H79.968V146.118H84.378V141.708Z" fill="#141414"/>
<path d="M106.428 141.708H102.018V146.118H106.428V141.708Z" fill="#141414"/>
<path d="M110.838 141.708H106.428V146.118H110.838V141.708Z" fill="#141414"/>
<path d="M115.248 141.708H110.838V146.118H115.248V141.708Z" fill="#141414"/>
<path d="M119.658 141.708H115.248V146.118H119.658V141.708Z" fill="#141414"/>
<path d="M124.068 141.708H119.658V146.118H124.068V141.708Z" fill="#141414"/>
<path d="M128.478 141.708H124.068V146.118H128.478V141.708Z" fill="#141414"/>
</g>
<defs>
<clipPath id="clip0_22_926">
<rect width="147" height="147" fill="white"/>
</clipPath>
</defs>
</svg>
