<svg width="143" height="143" viewBox="0 0 143 143" fill="none" xmlns="http://www.w3.org/2000/svg">
<path d="M5.71997 0.85791H0.857971V5.71991H5.71997V0.85791Z" fill="#141414"/>
<path d="M10.582 0.85791H5.71997V5.71991H10.582V0.85791Z" fill="#141414"/>
<path d="M15.444 0.85791H10.582V5.71991H15.444V0.85791Z" fill="#141414"/>
<path d="M20.306 0.85791H15.444V5.71991H20.306V0.85791Z" fill="#141414"/>
<path d="M25.168 0.85791H20.306V5.71991H25.168V0.85791Z" fill="#141414"/>
<path d="M30.03 0.85791H25.168V5.71991H30.03V0.85791Z" fill="#141414"/>
<path d="M34.892 0.85791H30.03V5.71991H34.892V0.85791Z" fill="#141414"/>
<path d="M49.478 0.85791H44.616V5.71991H49.478V0.85791Z" fill="#141414"/>
<path d="M54.34 0.85791H49.478V5.71991H54.34V0.85791Z" fill="#141414"/>
<path d="M64.064 0.85791H59.202V5.71991H64.064V0.85791Z" fill="#141414"/>
<path d="M78.65 0.85791H73.788V5.71991H78.65V0.85791Z" fill="#141414"/>
<path d="M83.512 0.85791H78.65V5.71991H83.512V0.85791Z" fill="#141414"/>
<path d="M88.374 0.85791H83.512V5.71991H88.374V0.85791Z" fill="#141414"/>
<path d="M93.236 0.85791H88.374V5.71991H93.236V0.85791Z" fill="#141414"/>
<path d="M98.098 0.85791H93.236V5.71991H98.098V0.85791Z" fill="#141414"/>
<path d="M112.684 0.85791H107.822V5.71991H112.684V0.85791Z" fill="#141414"/>
<path d="M117.546 0.85791H112.684V5.71991H117.546V0.85791Z" fill="#141414"/>
<path d="M122.408 0.85791H117.546V5.71991H122.408V0.85791Z" fill="#141414"/>
<path d="M127.27 0.85791H122.408V5.71991H127.27V0.85791Z" fill="#141414"/>
<path d="M132.132 0.85791H127.27V5.71991H132.132V0.85791Z" fill="#141414"/>
<path d="M136.994 0.85791H132.132V5.71991H136.994V0.85791Z" fill="#141414"/>
<path d="M141.856 0.85791H136.994V5.71991H141.856V0.85791Z" fill="#141414"/>
<path d="M5.71997 5.72021H0.857971V10.5822H5.71997V5.72021Z" fill="#141414"/>
<path d="M34.892 5.72021H30.03V10.5822H34.892V5.72021Z" fill="#141414"/>
<path d="M44.616 5.72021H39.754V10.5822H44.616V5.72021Z" fill="#141414"/>
<path d="M49.478 5.72021H44.616V10.5822H49.478V5.72021Z" fill="#141414"/>
<path d="M54.34 5.72021H49.478V10.5822H54.34V5.72021Z" fill="#141414"/>
<path d="M68.926 5.72021H64.064V10.5822H68.926V5.72021Z" fill="#141414"/>
<path d="M88.374 5.72021H83.512V10.5822H88.374V5.72021Z" fill="#141414"/>
<path d="M93.236 5.72021H88.374V10.5822H93.236V5.72021Z" fill="#141414"/>
<path d="M98.098 5.72021H93.236V10.5822H98.098V5.72021Z" fill="#141414"/>
<path d="M112.684 5.72021H107.822V10.5822H112.684V5.72021Z" fill="#141414"/>
<path d="M141.856 5.72021H136.994V10.5822H141.856V5.72021Z" fill="#141414"/>
<path d="M5.71997 10.582H0.857971V15.444H5.71997V10.582Z" fill="#141414"/>
<path d="M15.444 10.582H10.582V15.444H15.444V10.582Z" fill="#141414"/>
<path d="M20.306 10.582H15.444V15.444H20.306V10.582Z" fill="#141414"/>
<path d="M25.168 10.582H20.306V15.444H25.168V10.582Z" fill="#141414"/>
<path d="M34.892 10.582H30.03V15.444H34.892V10.582Z" fill="#141414"/>
<path d="M44.616 10.582H39.754V15.444H44.616V10.582Z" fill="#141414"/>
<path d="M49.478 10.582H44.616V15.444H49.478V10.582Z" fill="#141414"/>
<path d="M59.202 10.582H54.34V15.444H59.202V10.582Z" fill="#141414"/>
<path d="M68.926 10.582H64.064V15.444H68.926V10.582Z" fill="#141414"/>
<path d="M73.788 10.582H68.926V15.444H73.788V10.582Z" fill="#141414"/>
<path d="M78.65 10.582H73.788V15.444H78.65V10.582Z" fill="#141414"/>
<path d="M83.512 10.582H78.65V15.444H83.512V10.582Z" fill="#141414"/>
<path d="M93.236 10.582H88.374V15.444H93.236V10.582Z" fill="#141414"/>
<path d="M112.684 10.582H107.822V15.444H112.684V10.582Z" fill="#141414"/>
<path d="M122.408 10.582H117.546V15.444H122.408V10.582Z" fill="#141414"/>
<path d="M127.27 10.582H122.408V15.444H127.27V10.582Z" fill="#141414"/>
<path d="M132.132 10.582H127.27V15.444H132.132V10.582Z" fill="#141414"/>
<path d="M141.856 10.582H136.994V15.444H141.856V10.582Z" fill="#141414"/>
<path d="M5.71997 15.4438H0.857971V20.3058H5.71997V15.4438Z" fill="#141414"/>
<path d="M15.444 15.4438H10.582V20.3058H15.444V15.4438Z" fill="#141414"/>
<path d="M20.306 15.4438H15.444V20.3058H20.306V15.4438Z" fill="#141414"/>
<path d="M25.168 15.4438H20.306V20.3058H25.168V15.4438Z" fill="#141414"/>
<path d="M34.892 15.4438H30.03V20.3058H34.892V15.4438Z" fill="#141414"/>
<path d="M44.616 15.4438H39.754V20.3058H44.616V15.4438Z" fill="#141414"/>
<path d="M54.34 15.4438H49.478V20.3058H54.34V15.4438Z" fill="#141414"/>
<path d="M59.202 15.4438H54.34V20.3058H59.202V15.4438Z" fill="#141414"/>
<path d="M64.064 15.4438H59.202V20.3058H64.064V15.4438Z" fill="#141414"/>
<path d="M68.926 15.4438H64.064V20.3058H68.926V15.4438Z" fill="#141414"/>
<path d="M73.788 15.4438H68.926V20.3058H73.788V15.4438Z" fill="#141414"/>
<path d="M78.65 15.4438H73.788V20.3058H78.65V15.4438Z" fill="#141414"/>
<path d="M88.374 15.4438H83.512V20.3058H88.374V15.4438Z" fill="#141414"/>
<path d="M93.236 15.4438H88.374V20.3058H93.236V15.4438Z" fill="#141414"/>
<path d="M98.098 15.4438H93.236V20.3058H98.098V15.4438Z" fill="#141414"/>
<path d="M102.96 15.4438H98.098V20.3058H102.96V15.4438Z" fill="#141414"/>
<path d="M112.684 15.4438H107.822V20.3058H112.684V15.4438Z" fill="#141414"/>
<path d="M122.408 15.4438H117.546V20.3058H122.408V15.4438Z" fill="#141414"/>
<path d="M127.27 15.4438H122.408V20.3058H127.27V15.4438Z" fill="#141414"/>
<path d="M132.132 15.4438H127.27V20.3058H132.132V15.4438Z" fill="#141414"/>
<path d="M141.856 15.4438H136.994V20.3058H141.856V15.4438Z" fill="#141414"/>
<path d="M5.71997 20.3062H0.857971V25.1682H5.71997V20.3062Z" fill="#141414"/>
<path d="M15.444 20.3062H10.582V25.1682H15.444V20.3062Z" fill="#141414"/>
<path d="M20.306 20.3062H15.444V25.1682H20.306V20.3062Z" fill="#141414"/>
<path d="M25.168 20.3062H20.306V25.1682H25.168V20.3062Z" fill="#141414"/>
<path d="M34.892 20.3062H30.03V25.1682H34.892V20.3062Z" fill="#141414"/>
<path d="M44.616 20.3062H39.754V25.1682H44.616V20.3062Z" fill="#141414"/>
<path d="M49.478 20.3062H44.616V25.1682H49.478V20.3062Z" fill="#141414"/>
<path d="M78.65 20.3062H73.788V25.1682H78.65V20.3062Z" fill="#141414"/>
<path d="M88.374 20.3062H83.512V25.1682H88.374V20.3062Z" fill="#141414"/>
<path d="M102.96 20.3062H98.098V25.1682H102.96V20.3062Z" fill="#141414"/>
<path d="M112.684 20.3062H107.822V25.1682H112.684V20.3062Z" fill="#141414"/>
<path d="M122.408 20.3062H117.546V25.1682H122.408V20.3062Z" fill="#141414"/>
<path d="M127.27 20.3062H122.408V25.1682H127.27V20.3062Z" fill="#141414"/>
<path d="M132.132 20.3062H127.27V25.1682H132.132V20.3062Z" fill="#141414"/>
<path d="M141.856 20.3062H136.994V25.1682H141.856V20.3062Z" fill="#141414"/>
<path d="M5.71997 25.168H0.857971V30.03H5.71997V25.168Z" fill="#141414"/>
<path d="M34.892 25.168H30.03V30.03H34.892V25.168Z" fill="#141414"/>
<path d="M44.616 25.168H39.754V30.03H44.616V25.168Z" fill="#141414"/>
<path d="M59.202 25.168H54.34V30.03H59.202V25.168Z" fill="#141414"/>
<path d="M112.684 25.168H107.822V30.03H112.684V25.168Z" fill="#141414"/>
<path d="M141.856 25.168H136.994V30.03H141.856V25.168Z" fill="#141414"/>
<path d="M5.71997 30.0298H0.857971V34.8918H5.71997V30.0298Z" fill="#141414"/>
<path d="M10.582 30.0298H5.71997V34.8918H10.582V30.0298Z" fill="#141414"/>
<path d="M15.444 30.0298H10.582V34.8918H15.444V30.0298Z" fill="#141414"/>
<path d="M20.306 30.0298H15.444V34.8918H20.306V30.0298Z" fill="#141414"/>
<path d="M25.168 30.0298H20.306V34.8918H25.168V30.0298Z" fill="#141414"/>
<path d="M30.03 30.0298H25.168V34.8918H30.03V30.0298Z" fill="#141414"/>
<path d="M34.892 30.0298H30.03V34.8918H34.892V30.0298Z" fill="#141414"/>
<path d="M44.616 30.0298H39.754V34.8918H44.616V30.0298Z" fill="#141414"/>
<path d="M54.34 30.0298H49.478V34.8918H54.34V30.0298Z" fill="#141414"/>
<path d="M64.064 30.0298H59.202V34.8918H64.064V30.0298Z" fill="#141414"/>
<path d="M73.788 30.0298H68.926V34.8918H73.788V30.0298Z" fill="#141414"/>
<path d="M83.512 30.0298H78.65V34.8918H83.512V30.0298Z" fill="#141414"/>
<path d="M93.236 30.0298H88.374V34.8918H93.236V30.0298Z" fill="#141414"/>
<path d="M102.96 30.0298H98.098V34.8918H102.96V30.0298Z" fill="#141414"/>
<path d="M112.684 30.0298H107.822V34.8918H112.684V30.0298Z" fill="#141414"/>
<path d="M117.546 30.0298H112.684V34.8918H117.546V30.0298Z" fill="#141414"/>
<path d="M122.408 30.0298H117.546V34.8918H122.408V30.0298Z" fill="#141414"/>
<path d="M127.27 30.0298H122.408V34.8918H127.27V30.0298Z" fill="#141414"/>
<path d="M132.132 30.0298H127.27V34.8918H132.132V30.0298Z" fill="#141414"/>
<path d="M136.994 30.0298H132.132V34.8918H136.994V30.0298Z" fill="#141414"/>
<path d="M141.856 30.0298H136.994V34.8918H141.856V30.0298Z" fill="#141414"/>
<path d="M54.34 34.8921H49.478V39.7541H54.34V34.8921Z" fill="#141414"/>
<path d="M64.064 34.8921H59.202V39.7541H64.064V34.8921Z" fill="#141414"/>
<path d="M73.788 34.8921H68.926V39.7541H73.788V34.8921Z" fill="#141414"/>
<path d="M78.65 34.8921H73.788V39.7541H78.65V34.8921Z" fill="#141414"/>
<path d="M93.236 34.8921H88.374V39.7541H93.236V34.8921Z" fill="#141414"/>
<path d="M98.098 34.8921H93.236V39.7541H98.098V34.8921Z" fill="#141414"/>
<path d="M102.96 34.8921H98.098V39.7541H102.96V34.8921Z" fill="#141414"/>
<path d="M15.444 39.7539H10.582V44.6159H15.444V39.7539Z" fill="#141414"/>
<path d="M30.03 39.7539H25.168V44.6159H30.03V39.7539Z" fill="#141414"/>
<path d="M34.892 39.7539H30.03V44.6159H34.892V39.7539Z" fill="#141414"/>
<path d="M39.754 39.7539H34.892V44.6159H39.754V39.7539Z" fill="#141414"/>
<path d="M44.616 39.7539H39.754V44.6159H44.616V39.7539Z" fill="#141414"/>
<path d="M49.478 39.7539H44.616V44.6159H49.478V39.7539Z" fill="#141414"/>
<path d="M59.202 39.7539H54.34V44.6159H59.202V39.7539Z" fill="#141414"/>
<path d="M64.064 39.7539H59.202V44.6159H64.064V39.7539Z" fill="#141414"/>
<path d="M78.65 39.7539H73.788V44.6159H78.65V39.7539Z" fill="#141414"/>
<path d="M88.374 39.7539H83.512V44.6159H88.374V39.7539Z" fill="#141414"/>
<path d="M93.236 39.7539H88.374V44.6159H93.236V39.7539Z" fill="#141414"/>
<path d="M98.098 39.7539H93.236V44.6159H98.098V39.7539Z" fill="#141414"/>
<path d="M102.96 39.7539H98.098V44.6159H102.96V39.7539Z" fill="#141414"/>
<path d="M107.822 39.7539H102.96V44.6159H107.822V39.7539Z" fill="#141414"/>
<path d="M117.546 39.7539H112.684V44.6159H117.546V39.7539Z" fill="#141414"/>
<path d="M122.408 39.7539H117.546V44.6159H122.408V39.7539Z" fill="#141414"/>
<path d="M127.27 39.7539H122.408V44.6159H127.27V39.7539Z" fill="#141414"/>
<path d="M132.132 39.7539H127.27V44.6159H132.132V39.7539Z" fill="#141414"/>
<path d="M136.994 39.7539H132.132V44.6159H136.994V39.7539Z" fill="#141414"/>
<path d="M5.71997 44.6162H0.857971V49.4782H5.71997V44.6162Z" fill="#141414"/>
<path d="M20.306 44.6162H15.444V49.4782H20.306V44.6162Z" fill="#141414"/>
<path d="M25.168 44.6162H20.306V49.4782H25.168V44.6162Z" fill="#141414"/>
<path d="M44.616 44.6162H39.754V49.4782H44.616V44.6162Z" fill="#141414"/>
<path d="M49.478 44.6162H44.616V49.4782H49.478V44.6162Z" fill="#141414"/>
<path d="M59.202 44.6162H54.34V49.4782H59.202V44.6162Z" fill="#141414"/>
<path d="M68.926 44.6162H64.064V49.4782H68.926V44.6162Z" fill="#141414"/>
<path d="M83.512 44.6162H78.65V49.4782H83.512V44.6162Z" fill="#141414"/>
<path d="M93.236 44.6162H88.374V49.4782H93.236V44.6162Z" fill="#141414"/>
<path d="M127.27 44.6162H122.408V49.4782H127.27V44.6162Z" fill="#141414"/>
<path d="M15.444 49.478H10.582V54.34H15.444V49.478Z" fill="#141414"/>
<path d="M20.306 49.478H15.444V54.34H20.306V49.478Z" fill="#141414"/>
<path d="M30.03 49.478H25.168V54.34H30.03V49.478Z" fill="#141414"/>
<path d="M34.892 49.478H30.03V54.34H34.892V49.478Z" fill="#141414"/>
<path d="M54.34 49.478H49.478V54.34H54.34V49.478Z" fill="#141414"/>
<path d="M59.202 49.478H54.34V54.34H59.202V49.478Z" fill="#141414"/>
<path d="M73.788 49.478H68.926V54.34H73.788V49.478Z" fill="#141414"/>
<path d="M78.65 49.478H73.788V54.34H78.65V49.478Z" fill="#141414"/>
<path d="M83.512 49.478H78.65V54.34H83.512V49.478Z" fill="#141414"/>
<path d="M98.098 49.478H93.236V54.34H98.098V49.478Z" fill="#141414"/>
<path d="M102.96 49.478H98.098V54.34H102.96V49.478Z" fill="#141414"/>
<path d="M112.684 49.478H107.822V54.34H112.684V49.478Z" fill="#141414"/>
<path d="M127.27 49.478H122.408V54.34H127.27V49.478Z" fill="#141414"/>
<path d="M132.132 49.478H127.27V54.34H132.132V49.478Z" fill="#141414"/>
<path d="M141.856 49.478H136.994V54.34H141.856V49.478Z" fill="#141414"/>
<path d="M5.71997 54.3398H0.857971V59.2018H5.71997V54.3398Z" fill="#141414"/>
<path d="M10.582 54.3398H5.71997V59.2018H10.582V54.3398Z" fill="#141414"/>
<path d="M20.306 54.3398H15.444V59.2018H20.306V54.3398Z" fill="#141414"/>
<path d="M25.168 54.3398H20.306V59.2018H25.168V54.3398Z" fill="#141414"/>
<path d="M30.03 54.3398H25.168V59.2018H30.03V54.3398Z" fill="#141414"/>
<path d="M39.754 54.3398H34.892V59.2018H39.754V54.3398Z" fill="#141414"/>
<path d="M44.616 54.3398H39.754V59.2018H44.616V54.3398Z" fill="#141414"/>
<path d="M54.34 54.3398H49.478V59.2018H54.34V54.3398Z" fill="#141414"/>
<path d="M64.064 54.3398H59.202V59.2018H64.064V54.3398Z" fill="#141414"/>
<path d="M73.788 54.3398H68.926V59.2018H73.788V54.3398Z" fill="#141414"/>
<path d="M83.512 54.3398H78.65V59.2018H83.512V54.3398Z" fill="#141414"/>
<path d="M88.374 54.3398H83.512V59.2018H88.374V54.3398Z" fill="#141414"/>
<path d="M107.822 54.3398H102.96V59.2018H107.822V54.3398Z" fill="#141414"/>
<path d="M112.684 54.3398H107.822V59.2018H112.684V54.3398Z" fill="#141414"/>
<path d="M136.994 54.3398H132.132V59.2018H136.994V54.3398Z" fill="#141414"/>
<path d="M5.71997 59.2021H0.857971V64.0641H5.71997V59.2021Z" fill="#141414"/>
<path d="M10.582 59.2021H5.71997V64.0641H10.582V59.2021Z" fill="#141414"/>
<path d="M15.444 59.2021H10.582V64.0641H15.444V59.2021Z" fill="#141414"/>
<path d="M30.03 59.2021H25.168V64.0641H30.03V59.2021Z" fill="#141414"/>
<path d="M34.892 59.2021H30.03V64.0641H34.892V59.2021Z" fill="#141414"/>
<path d="M39.754 59.2021H34.892V64.0641H39.754V59.2021Z" fill="#141414"/>
<path d="M49.478 59.2021H44.616V64.0641H49.478V59.2021Z" fill="#141414"/>
<path d="M54.34 59.2021H49.478V64.0641H54.34V59.2021Z" fill="#141414"/>
<path d="M73.788 59.2021H68.926V64.0641H73.788V59.2021Z" fill="#141414"/>
<path d="M88.374 59.2021H83.512V64.0641H88.374V59.2021Z" fill="#141414"/>
<path d="M98.098 59.2021H93.236V64.0641H98.098V59.2021Z" fill="#141414"/>
<path d="M102.96 59.2021H98.098V64.0641H102.96V59.2021Z" fill="#141414"/>
<path d="M112.684 59.2021H107.822V64.0641H112.684V59.2021Z" fill="#141414"/>
<path d="M117.546 59.2021H112.684V64.0641H117.546V59.2021Z" fill="#141414"/>
<path d="M122.408 59.2021H117.546V64.0641H122.408V59.2021Z" fill="#141414"/>
<path d="M132.132 59.2021H127.27V64.0641H132.132V59.2021Z" fill="#141414"/>
<path d="M136.994 59.2021H132.132V64.0641H136.994V59.2021Z" fill="#141414"/>
<path d="M141.856 59.2021H136.994V64.0641H141.856V59.2021Z" fill="#141414"/>
<path d="M5.71997 64.064H0.857971V68.926H5.71997V64.064Z" fill="#141414"/>
<path d="M30.03 64.064H25.168V68.926H30.03V64.064Z" fill="#141414"/>
<path d="M49.478 64.064H44.616V68.926H49.478V64.064Z" fill="#141414"/>
<path d="M54.34 64.064H49.478V68.926H54.34V64.064Z" fill="#141414"/>
<path d="M68.926 64.064H64.064V68.926H68.926V64.064Z" fill="#141414"/>
<path d="M73.788 64.064H68.926V68.926H73.788V64.064Z" fill="#141414"/>
<path d="M78.65 64.064H73.788V68.926H78.65V64.064Z" fill="#141414"/>
<path d="M83.512 64.064H78.65V68.926H83.512V64.064Z" fill="#141414"/>
<path d="M93.236 64.064H88.374V68.926H93.236V64.064Z" fill="#141414"/>
<path d="M98.098 64.064H93.236V68.926H98.098V64.064Z" fill="#141414"/>
<path d="M102.96 64.064H98.098V68.926H102.96V64.064Z" fill="#141414"/>
<path d="M117.546 64.064H112.684V68.926H117.546V64.064Z" fill="#141414"/>
<path d="M127.27 64.064H122.408V68.926H127.27V64.064Z" fill="#141414"/>
<path d="M136.994 64.064H132.132V68.926H136.994V64.064Z" fill="#141414"/>
<path d="M141.856 64.064H136.994V68.926H141.856V64.064Z" fill="#141414"/>
<path d="M5.71997 68.9258H0.857971V73.7878H5.71997V68.9258Z" fill="#141414"/>
<path d="M20.306 68.9258H15.444V73.7878H20.306V68.9258Z" fill="#141414"/>
<path d="M30.03 68.9258H25.168V73.7878H30.03V68.9258Z" fill="#141414"/>
<path d="M34.892 68.9258H30.03V73.7878H34.892V68.9258Z" fill="#141414"/>
<path d="M39.754 68.9258H34.892V73.7878H39.754V68.9258Z" fill="#141414"/>
<path d="M44.616 68.9258H39.754V73.7878H44.616V68.9258Z" fill="#141414"/>
<path d="M49.478 68.9258H44.616V73.7878H49.478V68.9258Z" fill="#141414"/>
<path d="M68.926 68.9258H64.064V73.7878H68.926V68.9258Z" fill="#141414"/>
<path d="M78.65 68.9258H73.788V73.7878H78.65V68.9258Z" fill="#141414"/>
<path d="M83.512 68.9258H78.65V73.7878H83.512V68.9258Z" fill="#141414"/>
<path d="M93.236 68.9258H88.374V73.7878H93.236V68.9258Z" fill="#141414"/>
<path d="M102.96 68.9258H98.098V73.7878H102.96V68.9258Z" fill="#141414"/>
<path d="M112.684 68.9258H107.822V73.7878H112.684V68.9258Z" fill="#141414"/>
<path d="M5.71997 73.7881H0.857971V78.6501H5.71997V73.7881Z" fill="#141414"/>
<path d="M10.582 73.7881H5.71997V78.6501H10.582V73.7881Z" fill="#141414"/>
<path d="M15.444 73.7881H10.582V78.6501H15.444V73.7881Z" fill="#141414"/>
<path d="M25.168 73.7881H20.306V78.6501H25.168V73.7881Z" fill="#141414"/>
<path d="M30.03 73.7881H25.168V78.6501H30.03V73.7881Z" fill="#141414"/>
<path d="M39.754 73.7881H34.892V78.6501H39.754V73.7881Z" fill="#141414"/>
<path d="M59.202 73.7881H54.34V78.6501H59.202V73.7881Z" fill="#141414"/>
<path d="M64.064 73.7881H59.202V78.6501H64.064V73.7881Z" fill="#141414"/>
<path d="M73.788 73.7881H68.926V78.6501H73.788V73.7881Z" fill="#141414"/>
<path d="M78.65 73.7881H73.788V78.6501H78.65V73.7881Z" fill="#141414"/>
<path d="M98.098 73.7881H93.236V78.6501H98.098V73.7881Z" fill="#141414"/>
<path d="M112.684 73.7881H107.822V78.6501H112.684V73.7881Z" fill="#141414"/>
<path d="M117.546 73.7881H112.684V78.6501H117.546V73.7881Z" fill="#141414"/>
<path d="M127.27 73.7881H122.408V78.6501H127.27V73.7881Z" fill="#141414"/>
<path d="M141.856 73.7881H136.994V78.6501H141.856V73.7881Z" fill="#141414"/>
<path d="M5.71997 78.6499H0.857971V83.5119H5.71997V78.6499Z" fill="#141414"/>
<path d="M20.306 78.6499H15.444V83.5119H20.306V78.6499Z" fill="#141414"/>
<path d="M25.168 78.6499H20.306V83.5119H25.168V78.6499Z" fill="#141414"/>
<path d="M34.892 78.6499H30.03V83.5119H34.892V78.6499Z" fill="#141414"/>
<path d="M39.754 78.6499H34.892V83.5119H39.754V78.6499Z" fill="#141414"/>
<path d="M64.064 78.6499H59.202V83.5119H64.064V78.6499Z" fill="#141414"/>
<path d="M73.788 78.6499H68.926V83.5119H73.788V78.6499Z" fill="#141414"/>
<path d="M83.512 78.6499H78.65V83.5119H83.512V78.6499Z" fill="#141414"/>
<path d="M88.374 78.6499H83.512V83.5119H88.374V78.6499Z" fill="#141414"/>
<path d="M98.098 78.6499H93.236V83.5119H98.098V78.6499Z" fill="#141414"/>
<path d="M117.546 78.6499H112.684V83.5119H117.546V78.6499Z" fill="#141414"/>
<path d="M122.408 78.6499H117.546V83.5119H122.408V78.6499Z" fill="#141414"/>
<path d="M127.27 78.6499H122.408V83.5119H127.27V78.6499Z" fill="#141414"/>
<path d="M132.132 78.6499H127.27V83.5119H132.132V78.6499Z" fill="#141414"/>
<path d="M136.994 78.6499H132.132V83.5119H136.994V78.6499Z" fill="#141414"/>
<path d="M141.856 78.6499H136.994V83.5119H141.856V78.6499Z" fill="#141414"/>
<path d="M15.444 83.5122H10.582V88.3742H15.444V83.5122Z" fill="#141414"/>
<path d="M20.306 83.5122H15.444V88.3742H20.306V83.5122Z" fill="#141414"/>
<path d="M49.478 83.5122H44.616V88.3742H49.478V83.5122Z" fill="#141414"/>
<path d="M54.34 83.5122H49.478V88.3742H54.34V83.5122Z" fill="#141414"/>
<path d="M59.202 83.5122H54.34V88.3742H59.202V83.5122Z" fill="#141414"/>
<path d="M64.064 83.5122H59.202V88.3742H64.064V83.5122Z" fill="#141414"/>
<path d="M68.926 83.5122H64.064V88.3742H68.926V83.5122Z" fill="#141414"/>
<path d="M98.098 83.5122H93.236V88.3742H98.098V83.5122Z" fill="#141414"/>
<path d="M102.96 83.5122H98.098V88.3742H102.96V83.5122Z" fill="#141414"/>
<path d="M117.546 83.5122H112.684V88.3742H117.546V83.5122Z" fill="#141414"/>
<path d="M127.27 83.5122H122.408V88.3742H127.27V83.5122Z" fill="#141414"/>
<path d="M5.71997 88.374H0.857971V93.236H5.71997V88.374Z" fill="#141414"/>
<path d="M10.582 88.374H5.71997V93.236H10.582V88.374Z" fill="#141414"/>
<path d="M15.444 88.374H10.582V93.236H15.444V88.374Z" fill="#141414"/>
<path d="M30.03 88.374H25.168V93.236H30.03V88.374Z" fill="#141414"/>
<path d="M34.892 88.374H30.03V93.236H34.892V88.374Z" fill="#141414"/>
<path d="M39.754 88.374H34.892V93.236H39.754V88.374Z" fill="#141414"/>
<path d="M64.064 88.374H59.202V93.236H64.064V88.374Z" fill="#141414"/>
<path d="M78.65 88.374H73.788V93.236H78.65V88.374Z" fill="#141414"/>
<path d="M88.374 88.374H83.512V93.236H88.374V88.374Z" fill="#141414"/>
<path d="M98.098 88.374H93.236V93.236H98.098V88.374Z" fill="#141414"/>
<path d="M102.96 88.374H98.098V93.236H102.96V88.374Z" fill="#141414"/>
<path d="M112.684 88.374H107.822V93.236H112.684V88.374Z" fill="#141414"/>
<path d="M127.27 88.374H122.408V93.236H127.27V88.374Z" fill="#141414"/>
<path d="M141.856 88.374H136.994V93.236H141.856V88.374Z" fill="#141414"/>
<path d="M39.754 93.2358H34.892V98.0978H39.754V93.2358Z" fill="#141414"/>
<path d="M54.34 93.2358H49.478V98.0978H54.34V93.2358Z" fill="#141414"/>
<path d="M64.064 93.2358H59.202V98.0978H64.064V93.2358Z" fill="#141414"/>
<path d="M73.788 93.2358H68.926V98.0978H73.788V93.2358Z" fill="#141414"/>
<path d="M83.512 93.2358H78.65V98.0978H83.512V93.2358Z" fill="#141414"/>
<path d="M98.098 93.2358H93.236V98.0978H98.098V93.2358Z" fill="#141414"/>
<path d="M102.96 93.2358H98.098V98.0978H102.96V93.2358Z" fill="#141414"/>
<path d="M112.684 93.2358H107.822V98.0978H112.684V93.2358Z" fill="#141414"/>
<path d="M117.546 93.2358H112.684V98.0978H117.546V93.2358Z" fill="#141414"/>
<path d="M127.27 93.2358H122.408V98.0978H127.27V93.2358Z" fill="#141414"/>
<path d="M132.132 93.2358H127.27V98.0978H132.132V93.2358Z" fill="#141414"/>
<path d="M141.856 93.2358H136.994V98.0978H141.856V93.2358Z" fill="#141414"/>
<path d="M5.71997 98.0981H0.857971V102.96H5.71997V98.0981Z" fill="#141414"/>
<path d="M10.582 98.0981H5.71997V102.96H10.582V98.0981Z" fill="#141414"/>
<path d="M15.444 98.0981H10.582V102.96H15.444V98.0981Z" fill="#141414"/>
<path d="M20.306 98.0981H15.444V102.96H20.306V98.0981Z" fill="#141414"/>
<path d="M30.03 98.0981H25.168V102.96H30.03V98.0981Z" fill="#141414"/>
<path d="M34.892 98.0981H30.03V102.96H34.892V98.0981Z" fill="#141414"/>
<path d="M44.616 98.0981H39.754V102.96H44.616V98.0981Z" fill="#141414"/>
<path d="M64.064 98.0981H59.202V102.96H64.064V98.0981Z" fill="#141414"/>
<path d="M68.926 98.0981H64.064V102.96H68.926V98.0981Z" fill="#141414"/>
<path d="M73.788 98.0981H68.926V102.96H73.788V98.0981Z" fill="#141414"/>
<path d="M78.65 98.0981H73.788V102.96H78.65V98.0981Z" fill="#141414"/>
<path d="M83.512 98.0981H78.65V102.96H83.512V98.0981Z" fill="#141414"/>
<path d="M88.374 98.0981H83.512V102.96H88.374V98.0981Z" fill="#141414"/>
<path d="M98.098 98.0981H93.236V102.96H98.098V98.0981Z" fill="#141414"/>
<path d="M102.96 98.0981H98.098V102.96H102.96V98.0981Z" fill="#141414"/>
<path d="M107.822 98.0981H102.96V102.96H107.822V98.0981Z" fill="#141414"/>
<path d="M112.684 98.0981H107.822V102.96H112.684V98.0981Z" fill="#141414"/>
<path d="M117.546 98.0981H112.684V102.96H117.546V98.0981Z" fill="#141414"/>
<path d="M122.408 98.0981H117.546V102.96H122.408V98.0981Z" fill="#141414"/>
<path d="M127.27 98.0981H122.408V102.96H127.27V98.0981Z" fill="#141414"/>
<path d="M136.994 98.0981H132.132V102.96H136.994V98.0981Z" fill="#141414"/>
<path d="M44.616 102.96H39.754V107.822H44.616V102.96Z" fill="#141414"/>
<path d="M49.478 102.96H44.616V107.822H49.478V102.96Z" fill="#141414"/>
<path d="M59.202 102.96H54.34V107.822H59.202V102.96Z" fill="#141414"/>
<path d="M68.926 102.96H64.064V107.822H68.926V102.96Z" fill="#141414"/>
<path d="M73.788 102.96H68.926V107.822H73.788V102.96Z" fill="#141414"/>
<path d="M78.65 102.96H73.788V107.822H78.65V102.96Z" fill="#141414"/>
<path d="M83.512 102.96H78.65V107.822H83.512V102.96Z" fill="#141414"/>
<path d="M93.236 102.96H88.374V107.822H93.236V102.96Z" fill="#141414"/>
<path d="M102.96 102.96H98.098V107.822H102.96V102.96Z" fill="#141414"/>
<path d="M122.408 102.96H117.546V107.822H122.408V102.96Z" fill="#141414"/>
<path d="M127.27 102.96H122.408V107.822H127.27V102.96Z" fill="#141414"/>
<path d="M136.994 102.96H132.132V107.822H136.994V102.96Z" fill="#141414"/>
<path d="M5.71997 107.822H0.857971V112.684H5.71997V107.822Z" fill="#141414"/>
<path d="M10.582 107.822H5.71997V112.684H10.582V107.822Z" fill="#141414"/>
<path d="M15.444 107.822H10.582V112.684H15.444V107.822Z" fill="#141414"/>
<path d="M20.306 107.822H15.444V112.684H20.306V107.822Z" fill="#141414"/>
<path d="M25.168 107.822H20.306V112.684H25.168V107.822Z" fill="#141414"/>
<path d="M30.03 107.822H25.168V112.684H30.03V107.822Z" fill="#141414"/>
<path d="M34.892 107.822H30.03V112.684H34.892V107.822Z" fill="#141414"/>
<path d="M44.616 107.822H39.754V112.684H44.616V107.822Z" fill="#141414"/>
<path d="M54.34 107.822H49.478V112.684H54.34V107.822Z" fill="#141414"/>
<path d="M64.064 107.822H59.202V112.684H64.064V107.822Z" fill="#141414"/>
<path d="M68.926 107.822H64.064V112.684H68.926V107.822Z" fill="#141414"/>
<path d="M83.512 107.822H78.65V112.684H83.512V107.822Z" fill="#141414"/>
<path d="M88.374 107.822H83.512V112.684H88.374V107.822Z" fill="#141414"/>
<path d="M93.236 107.822H88.374V112.684H93.236V107.822Z" fill="#141414"/>
<path d="M102.96 107.822H98.098V112.684H102.96V107.822Z" fill="#141414"/>
<path d="M112.684 107.822H107.822V112.684H112.684V107.822Z" fill="#141414"/>
<path d="M122.408 107.822H117.546V112.684H122.408V107.822Z" fill="#141414"/>
<path d="M5.71997 112.684H0.857971V117.546H5.71997V112.684Z" fill="#141414"/>
<path d="M34.892 112.684H30.03V117.546H34.892V112.684Z" fill="#141414"/>
<path d="M44.616 112.684H39.754V117.546H44.616V112.684Z" fill="#141414"/>
<path d="M49.478 112.684H44.616V117.546H49.478V112.684Z" fill="#141414"/>
<path d="M59.202 112.684H54.34V117.546H59.202V112.684Z" fill="#141414"/>
<path d="M64.064 112.684H59.202V117.546H64.064V112.684Z" fill="#141414"/>
<path d="M68.926 112.684H64.064V117.546H68.926V112.684Z" fill="#141414"/>
<path d="M73.788 112.684H68.926V117.546H73.788V112.684Z" fill="#141414"/>
<path d="M88.374 112.684H83.512V117.546H88.374V112.684Z" fill="#141414"/>
<path d="M102.96 112.684H98.098V117.546H102.96V112.684Z" fill="#141414"/>
<path d="M122.408 112.684H117.546V117.546H122.408V112.684Z" fill="#141414"/>
<path d="M127.27 112.684H122.408V117.546H127.27V112.684Z" fill="#141414"/>
<path d="M141.856 112.684H136.994V117.546H141.856V112.684Z" fill="#141414"/>
<path d="M5.71997 117.546H0.857971V122.408H5.71997V117.546Z" fill="#141414"/>
<path d="M15.444 117.546H10.582V122.408H15.444V117.546Z" fill="#141414"/>
<path d="M20.306 117.546H15.444V122.408H20.306V117.546Z" fill="#141414"/>
<path d="M25.168 117.546H20.306V122.408H25.168V117.546Z" fill="#141414"/>
<path d="M34.892 117.546H30.03V122.408H34.892V117.546Z" fill="#141414"/>
<path d="M68.926 117.546H64.064V122.408H68.926V117.546Z" fill="#141414"/>
<path d="M93.236 117.546H88.374V122.408H93.236V117.546Z" fill="#141414"/>
<path d="M98.098 117.546H93.236V122.408H98.098V117.546Z" fill="#141414"/>
<path d="M102.96 117.546H98.098V122.408H102.96V117.546Z" fill="#141414"/>
<path d="M107.822 117.546H102.96V122.408H107.822V117.546Z" fill="#141414"/>
<path d="M112.684 117.546H107.822V122.408H112.684V117.546Z" fill="#141414"/>
<path d="M117.546 117.546H112.684V122.408H117.546V117.546Z" fill="#141414"/>
<path d="M122.408 117.546H117.546V122.408H122.408V117.546Z" fill="#141414"/>
<path d="M141.856 117.546H136.994V122.408H141.856V117.546Z" fill="#141414"/>
<path d="M5.71997 122.408H0.857971V127.27H5.71997V122.408Z" fill="#141414"/>
<path d="M15.444 122.408H10.582V127.27H15.444V122.408Z" fill="#141414"/>
<path d="M20.306 122.408H15.444V127.27H20.306V122.408Z" fill="#141414"/>
<path d="M25.168 122.408H20.306V127.27H25.168V122.408Z" fill="#141414"/>
<path d="M34.892 122.408H30.03V127.27H34.892V122.408Z" fill="#141414"/>
<path d="M49.478 122.408H44.616V127.27H49.478V122.408Z" fill="#141414"/>
<path d="M54.34 122.408H49.478V127.27H54.34V122.408Z" fill="#141414"/>
<path d="M68.926 122.408H64.064V127.27H68.926V122.408Z" fill="#141414"/>
<path d="M73.788 122.408H68.926V127.27H73.788V122.408Z" fill="#141414"/>
<path d="M83.512 122.408H78.65V127.27H83.512V122.408Z" fill="#141414"/>
<path d="M88.374 122.408H83.512V127.27H88.374V122.408Z" fill="#141414"/>
<path d="M93.236 122.408H88.374V127.27H93.236V122.408Z" fill="#141414"/>
<path d="M98.098 122.408H93.236V127.27H98.098V122.408Z" fill="#141414"/>
<path d="M102.96 122.408H98.098V127.27H102.96V122.408Z" fill="#141414"/>
<path d="M107.822 122.408H102.96V127.27H107.822V122.408Z" fill="#141414"/>
<path d="M117.546 122.408H112.684V127.27H117.546V122.408Z" fill="#141414"/>
<path d="M127.27 122.408H122.408V127.27H127.27V122.408Z" fill="#141414"/>
<path d="M136.994 122.408H132.132V127.27H136.994V122.408Z" fill="#141414"/>
<path d="M5.71997 127.27H0.857971V132.132H5.71997V127.27Z" fill="#141414"/>
<path d="M15.444 127.27H10.582V132.132H15.444V127.27Z" fill="#141414"/>
<path d="M20.306 127.27H15.444V132.132H20.306V127.27Z" fill="#141414"/>
<path d="M25.168 127.27H20.306V132.132H25.168V127.27Z" fill="#141414"/>
<path d="M34.892 127.27H30.03V132.132H34.892V127.27Z" fill="#141414"/>
<path d="M44.616 127.27H39.754V132.132H44.616V127.27Z" fill="#141414"/>
<path d="M49.478 127.27H44.616V132.132H49.478V127.27Z" fill="#141414"/>
<path d="M59.202 127.27H54.34V132.132H59.202V127.27Z" fill="#141414"/>
<path d="M73.788 127.27H68.926V132.132H73.788V127.27Z" fill="#141414"/>
<path d="M78.65 127.27H73.788V132.132H78.65V127.27Z" fill="#141414"/>
<path d="M93.236 127.27H88.374V132.132H93.236V127.27Z" fill="#141414"/>
<path d="M102.96 127.27H98.098V132.132H102.96V127.27Z" fill="#141414"/>
<path d="M112.684 127.27H107.822V132.132H112.684V127.27Z" fill="#141414"/>
<path d="M117.546 127.27H112.684V132.132H117.546V127.27Z" fill="#141414"/>
<path d="M127.27 127.27H122.408V132.132H127.27V127.27Z" fill="#141414"/>
<path d="M136.994 127.27H132.132V132.132H136.994V127.27Z" fill="#141414"/>
<path d="M141.856 127.27H136.994V132.132H141.856V127.27Z" fill="#141414"/>
<path d="M5.71997 132.132H0.857971V136.994H5.71997V132.132Z" fill="#141414"/>
<path d="M34.892 132.132H30.03V136.994H34.892V132.132Z" fill="#141414"/>
<path d="M49.478 132.132H44.616V136.994H49.478V132.132Z" fill="#141414"/>
<path d="M59.202 132.132H54.34V136.994H59.202V132.132Z" fill="#141414"/>
<path d="M64.064 132.132H59.202V136.994H64.064V132.132Z" fill="#141414"/>
<path d="M83.512 132.132H78.65V136.994H83.512V132.132Z" fill="#141414"/>
<path d="M93.236 132.132H88.374V136.994H93.236V132.132Z" fill="#141414"/>
<path d="M98.098 132.132H93.236V136.994H98.098V132.132Z" fill="#141414"/>
<path d="M107.822 132.132H102.96V136.994H107.822V132.132Z" fill="#141414"/>
<path d="M122.408 132.132H117.546V136.994H122.408V132.132Z" fill="#141414"/>
<path d="M136.994 132.132H132.132V136.994H136.994V132.132Z" fill="#141414"/>
<path d="M141.856 132.132H136.994V136.994H141.856V132.132Z" fill="#141414"/>
<path d="M5.71997 136.994H0.857971V141.856H5.71997V136.994Z" fill="#141414"/>
<path d="M10.582 136.994H5.71997V141.856H10.582V136.994Z" fill="#141414"/>
<path d="M15.444 136.994H10.582V141.856H15.444V136.994Z" fill="#141414"/>
<path d="M20.306 136.994H15.444V141.856H20.306V136.994Z" fill="#141414"/>
<path d="M25.168 136.994H20.306V141.856H25.168V136.994Z" fill="#141414"/>
<path d="M30.03 136.994H25.168V141.856H30.03V136.994Z" fill="#141414"/>
<path d="M34.892 136.994H30.03V141.856H34.892V136.994Z" fill="#141414"/>
<path d="M49.478 136.994H44.616V141.856H49.478V136.994Z" fill="#141414"/>
<path d="M54.34 136.994H49.478V141.856H54.34V136.994Z" fill="#141414"/>
<path d="M59.202 136.994H54.34V141.856H59.202V136.994Z" fill="#141414"/>
<path d="M68.926 136.994H64.064V141.856H68.926V136.994Z" fill="#141414"/>
<path d="M73.788 136.994H68.926V141.856H73.788V136.994Z" fill="#141414"/>
<path d="M83.512 136.994H78.65V141.856H83.512V136.994Z" fill="#141414"/>
<path d="M88.374 136.994H83.512V141.856H88.374V136.994Z" fill="#141414"/>
<path d="M93.236 136.994H88.374V141.856H93.236V136.994Z" fill="#141414"/>
<path d="M102.96 136.994H98.098V141.856H102.96V136.994Z" fill="#141414"/>
<path d="M107.822 136.994H102.96V141.856H107.822V136.994Z" fill="#141414"/>
<path d="M122.408 136.994H117.546V141.856H122.408V136.994Z" fill="#141414"/>
<path d="M132.132 136.994H127.27V141.856H132.132V136.994Z" fill="#141414"/>
<path d="M141.856 136.994H136.994V141.856H141.856V136.994Z" fill="#141414"/>
</svg>
