<svg width="30" height="30" viewBox="0 0 30 30" fill="none" xmlns="http://www.w3.org/2000/svg">
<g clip-path="url(#clip0_1202_43)">
<path d="M20.4545 11.25C20.2896 11.25 20.1321 11.1837 20.0156 11.0675L17.5363 8.56746C17.2945 8.32371 17.2945 7.92746 17.5363 7.68371C17.778 7.43996 18.171 7.43996 18.4127 7.68371L20.4235 9.71121L24.3259 5.21371C24.5528 4.95246 24.9433 4.92746 25.1999 5.15496C25.4578 5.38246 25.4838 5.77746 25.2582 6.03746L20.9193 11.0375C20.8078 11.1675 20.6466 11.2437 20.4755 11.25C20.4681 11.25 20.4619 11.25 20.4545 11.25Z" fill="#525252"/>
<path d="M24.1737 21.25H8.05795C7.76291 21.25 7.50878 21.04 7.45051 20.7475L4.97117 8.2475C4.93398 8.06375 4.98233 7.87375 5.09886 7.72875C5.21539 7.58375 5.3939 7.5 5.57861 7.5H10.5373C10.8794 7.5 11.1571 7.78 11.1571 8.125C11.1571 8.47 10.8794 8.75 10.5373 8.75H6.33481L8.56621 20H23.6654L24.0088 18.2687C24.077 17.9287 24.4166 17.7125 24.7377 17.7787C25.0737 17.8462 25.2918 18.175 25.2249 18.5137L24.7823 20.7475C24.7228 21.04 24.4687 21.25 24.1737 21.25Z" fill="#525252"/>
<path d="M8.05661 21.25C7.76777 21.25 7.50992 21.045 7.45041 20.7475L4.37727 5.25497C4.20496 4.38122 3.43636 3.74747 2.55372 3.74747H2.55248L0.621074 3.74997C0.619835 3.74997 0.619835 3.74997 0.619835 3.74997C0.277686 3.74997 0 3.46997 0 3.12497C0 2.77997 0.277686 2.49997 0.618595 2.49997L2.55 2.49747H2.55372C4.02645 2.49747 5.30455 3.55372 5.59339 5.00997L8.66529 20.5025C8.73347 20.8412 8.51529 21.17 8.1781 21.2375C8.13843 21.2462 8.09752 21.25 8.05661 21.25Z" fill="#525252"/>
<path d="M26.6529 23.75H5.5785C4.55329 23.75 3.71899 22.9087 3.71899 21.875C3.71899 20.8412 4.55329 20 5.5785 20H8.05784C8.39999 20 8.67767 20.28 8.67767 20.625C8.67767 20.97 8.39999 21.25 8.05784 21.25H5.5785C5.23759 21.25 4.95866 21.53 4.95866 21.875C4.95866 22.22 5.23759 22.5 5.5785 22.5H26.6529C26.995 22.5 27.2727 22.78 27.2727 23.125C27.2727 23.47 26.995 23.75 26.6529 23.75Z" fill="#525252"/>
<path d="M9.91732 30C8.54997 30 7.43799 28.8788 7.43799 27.5C7.43799 26.1213 8.54997 25 9.91732 25C11.2847 25 12.3967 26.1213 12.3967 27.5C12.3967 28.8788 11.2847 30 9.91732 30ZM9.91732 26.25C9.23303 26.25 8.67766 26.8113 8.67766 27.5C8.67766 28.1888 9.23303 28.75 9.91732 28.75C10.6016 28.75 11.157 28.1888 11.157 27.5C11.157 26.8113 10.6016 26.25 9.91732 26.25Z" fill="#525252"/>
<path d="M21.0744 30C19.7071 30 18.5951 28.8788 18.5951 27.5C18.5951 26.1213 19.7071 25 21.0744 25C22.4418 25 23.5538 26.1213 23.5538 27.5C23.5538 28.8788 22.4418 30 21.0744 30ZM21.0744 26.25C20.3901 26.25 19.8348 26.8113 19.8348 27.5C19.8348 28.1888 20.3901 28.75 21.0744 28.75C21.7587 28.75 22.3141 28.1888 22.3141 27.5C22.3141 26.8113 21.7587 26.25 21.0744 26.25Z" fill="#525252"/>
</g>
<ellipse cx="21.9421" cy="8.125" rx="8.05785" ry="8.125" fill="#DA251C"/>
<path d="M21.8592 12.096C21.2032 12.096 20.6152 11.928 20.0952 11.592C19.5832 11.256 19.1752 10.768 18.8712 10.128C18.5752 9.488 18.4272 8.712 18.4272 7.8C18.4272 6.888 18.5752 6.112 18.8712 5.472C19.1752 4.832 19.5832 4.344 20.0952 4.008C20.6152 3.672 21.2032 3.504 21.8592 3.504C22.5072 3.504 23.0912 3.672 23.6112 4.008C24.1312 4.344 24.5392 4.832 24.8352 5.472C25.1312 6.112 25.2792 6.888 25.2792 7.8C25.2792 8.712 25.1312 9.488 24.8352 10.128C24.5392 10.768 24.1312 11.256 23.6112 11.592C23.0912 11.928 22.5072 12.096 21.8592 12.096ZM21.8592 11.028C22.2992 11.028 22.6832 10.908 23.0112 10.668C23.3472 10.428 23.6072 10.068 23.7912 9.588C23.9832 9.108 24.0792 8.512 24.0792 7.8C24.0792 7.088 23.9832 6.492 23.7912 6.012C23.6072 5.532 23.3472 5.172 23.0112 4.932C22.6832 4.692 22.2992 4.572 21.8592 4.572C21.4192 4.572 21.0312 4.692 20.6952 4.932C20.3592 5.172 20.0952 5.532 19.9032 6.012C19.7192 6.492 19.6272 7.088 19.6272 7.8C19.6272 8.512 19.7192 9.108 19.9032 9.588C20.0952 10.068 20.3592 10.428 20.6952 10.668C21.0312 10.908 21.4192 11.028 21.8592 11.028Z" fill="white"/>
<defs>
<clipPath id="clip0_1202_43">
<rect width="29.7521" height="30" fill="white"/>
</clipPath>
</defs>
</svg>
