<svg width="76" height="66" viewBox="0 0 76 66" fill="none" xmlns="http://www.w3.org/2000/svg">
<path d="M38.0437 60.9873C37.104 60.9873 36.1982 60.6575 35.4922 60.0585C32.826 57.7999 30.2554 55.6774 27.9875 53.8051L27.9759 53.7954C21.3266 48.3059 15.5848 43.5653 11.5897 38.8954C7.12378 33.6747 5.04366 28.7248 5.04366 23.3173C5.04366 18.0635 6.90323 13.2165 10.2795 9.66857C13.696 6.0787 18.3839 4.10156 23.4813 4.10156C27.2911 4.10156 30.7801 5.26843 33.8512 7.56948C35.4011 8.73098 36.806 10.1525 38.0437 11.8106C39.2819 10.1525 40.6862 8.73098 42.2366 7.56948C45.3077 5.26843 48.7968 4.10156 52.6065 4.10156C57.7034 4.10156 62.3918 6.0787 65.8083 9.66857C69.1846 13.2165 71.0437 18.0635 71.0437 23.3173C71.0437 28.7248 68.964 33.6747 64.4981 38.8949C60.5031 43.5653 54.7617 48.3054 48.1134 53.7944C45.8415 55.6696 43.2669 57.7955 40.5946 60.0595C39.8891 60.6575 38.9828 60.9873 38.0437 60.9873Z" stroke="black" stroke-width="4"/>
</svg>
