<svg width="35" height="34" viewBox="0 0 35 34" fill="none" xmlns="http://www.w3.org/2000/svg">
<path d="M17.5 0.333496C14.2038 0.333496 10.9813 1.31097 8.24051 3.14233C5.4997 4.97368 3.36349 7.57666 2.10203 10.6221C0.840572 13.6675 0.510509 17.0187 1.15359 20.2516C1.79668 23.4847 3.38403 26.4543 5.7149 28.7854C8.04578 31.1162 11.0155 32.7035 14.2485 33.3466C17.4815 33.9897 20.8327 33.6595 23.8781 32.3981C26.9235 31.1366 29.5265 29.0006 31.3579 26.2597C33.1892 23.5189 34.1667 20.2966 34.1667 17.0002C34.1667 12.5799 32.4106 8.34066 29.2852 5.21506C26.1596 2.08943 21.9202 0.333496 17.5 0.333496ZM25.6875 11.7502L22.9583 24.646C22.75 25.5627 22.2083 25.771 21.4375 25.3543L17.2708 22.271L15.1875 24.2085C15.0894 24.3366 14.9633 24.4408 14.819 24.5131C14.6746 24.5852 14.5156 24.6235 14.3542 24.6252L14.6458 20.4585L22.3542 13.4793C22.7083 13.1877 22.3542 13.021 21.8542 13.3127L12.3958 19.2502L8.22918 17.9585C7.33334 17.6877 7.31251 17.0627 8.41667 16.646L24.4792 10.396C25.2708 10.1668 25.9375 10.6252 25.6875 11.7502Z" fill="#BEBEBE"/>
</svg>
