<svg width="37" height="30" viewBox="0 0 37 30" fill="none" xmlns="http://www.w3.org/2000/svg">
<path d="M11.8684 29.5277C7.72787 29.5277 3.87175 28.3138 0.625 26.2257C2.54523 26.4589 4.49261 26.311 6.35558 25.7904C8.21854 25.2698 9.96049 24.3868 11.4816 23.1918C9.95061 23.1638 8.46679 22.6571 7.23838 21.7429C6.00998 20.8286 5.09864 19.5527 4.63225 18.0942C5.08075 18.182 5.54063 18.2275 6.01025 18.2275C6.67975 18.2275 7.32975 18.1365 7.94887 17.974C6.28916 17.6378 4.79662 16.7384 3.72401 15.428C2.6514 14.1176 2.06465 12.4767 2.06313 10.7833V10.6875C3.07999 11.254 4.21791 11.5683 5.38138 11.604C4.37603 10.9341 3.55198 10.026 2.98266 8.96052C2.41334 7.89503 2.11643 6.70526 2.11838 5.49721C2.11838 4.15821 2.484 2.89396 3.11288 1.81171C4.95447 4.07756 7.25212 5.93068 9.85657 7.25068C12.461 8.57068 15.314 9.32805 18.2302 9.47358C17.8649 7.90108 18.0281 6.25197 18.6947 4.78161C19.3612 3.31125 20.494 2.10166 21.9175 1.34013C23.341 0.578598 24.9758 0.307608 26.5689 0.56912C28.162 0.830631 29.6244 1.61006 30.7297 2.78671C32.3715 2.46174 33.9463 1.86063 35.387 1.00896C34.8389 2.70708 33.6941 4.14914 32.1646 5.06821C33.6181 4.89468 35.0376 4.50584 36.3766 3.91446C35.3893 5.3854 34.1505 6.67092 32.7171 7.71208C32.7301 8.02571 32.7399 8.34258 32.7399 8.65946C32.7383 18.3477 25.3591 29.5293 11.8684 29.5277Z" fill="#BEBEBE"/>
</svg>
