<svg width="113" height="93" viewBox="0 0 113 93" fill="none" xmlns="http://www.w3.org/2000/svg">
<path d="M35.7124 92.0379C22.7335 92.0379 10.6461 88.2329 0.46875 81.6874C6.48793 82.4185 12.5922 81.9548 18.4319 80.3229C24.2716 78.691 29.7319 75.923 34.5001 72.1774C29.7009 72.0895 25.0497 70.5012 21.1992 67.6354C17.3486 64.7696 14.4919 60.7702 13.0299 56.1983C14.4358 56.4733 15.8773 56.616 17.3494 56.616C19.4481 56.616 21.4856 56.3307 23.4263 55.8213C18.2237 54.7677 13.5452 51.9483 10.183 47.8407C6.82075 43.7331 4.98151 38.5897 4.97672 33.2815V32.981C8.16418 34.7567 11.7311 35.7419 15.3782 35.8538C12.2268 33.7542 9.64372 30.9076 7.85912 27.5677C6.07452 24.2278 5.14381 20.4983 5.14991 16.7115C5.14991 12.5143 6.296 8.55134 8.26728 5.1589C14.04 12.2615 21.2422 18.0703 29.4062 22.208C37.5701 26.3457 46.5132 28.7197 55.6544 29.1759C54.5091 24.2467 55.0208 19.0774 57.1102 14.4684C59.1997 9.8594 62.7504 6.0678 67.2125 3.68069C71.6746 1.29358 76.7992 0.444129 81.7929 1.26387C86.7866 2.0836 91.3708 4.5268 94.8356 8.21515C99.9819 7.19649 104.918 5.31224 109.434 2.64259C107.716 7.96555 104.128 12.4858 99.3333 15.3668C103.889 14.8228 108.339 13.604 112.536 11.7502C109.441 16.3611 105.558 20.3907 101.065 23.6543C101.106 24.6374 101.137 25.6307 101.137 26.624C101.131 56.9929 78.0007 92.043 35.7124 92.0379Z" fill="#141414"/>
</svg>
