<svg width="130" height="130" viewBox="0 0 130 130" fill="none" xmlns="http://www.w3.org/2000/svg">
<g clip-path="url(#clip0_22_919)">
<path d="M124.348 86.0373C121.518 82.6397 118.301 79.5946 115.19 76.6496C114.084 75.6023 112.941 74.5195 111.838 73.4427C108.673 70.3482 108.558 69.1856 111.064 65.6707C112.798 63.2478 114.636 60.8217 116.414 58.4754C118.026 56.3467 119.693 54.1453 121.291 51.9368L121.62 51.4827C124.674 47.2564 127.833 42.8862 129.514 37.6143C129.951 36.2234 130.409 34.1766 129.361 32.4651C128.314 30.7551 126.282 30.2333 124.844 29.9897C124.133 29.8691 123.427 29.8526 122.772 29.8526L102.769 29.8383L102.604 29.8369C99.5794 29.8369 97.5412 31.2621 96.3733 34.1945C95.2583 36.9963 94.0334 39.9799 92.6357 42.8168C89.8543 48.4659 86.3218 54.9723 81.2102 60.3988L80.9941 60.6296C80.3904 61.2783 79.7066 62.0129 79.2067 62.0129C79.1302 62.0129 79.0468 61.9983 78.9523 61.9686C77.8935 61.556 77.1829 58.9929 77.2151 57.8006C77.2154 57.7841 77.2158 57.7677 77.2158 57.7512L77.2018 34.6318C77.2018 34.5516 77.1961 34.4722 77.1857 34.3928C76.6769 30.6345 75.5497 28.295 71.2908 27.4609C71.1778 27.4383 71.0622 27.4272 70.947 27.4272H50.1477C46.7591 27.4272 44.8919 28.8045 43.1368 30.866C42.663 31.4171 41.6768 32.5643 42.1656 33.9559C42.6616 35.3682 44.2714 35.6702 44.7957 35.7683C47.3978 36.2635 48.8645 37.8551 49.28 40.6362C50.0053 45.4655 50.0944 50.62 49.5605 56.858C49.4117 58.5917 49.1172 59.9307 48.632 61.0747C48.5192 61.3417 48.1195 62.213 47.712 62.2133C47.5824 62.2133 47.2078 62.1625 46.5254 61.6923C44.912 60.587 43.7315 59.0097 42.3553 57.0613C37.6734 50.4447 33.7441 43.1557 30.3411 34.7728C29.0791 31.6869 26.722 29.9593 23.7012 29.9084C20.382 29.858 17.3726 29.8337 14.5025 29.8337C11.3665 29.8337 8.4591 29.8626 5.62008 29.9217C3.18969 29.9646 1.50861 30.6932 0.624053 32.0887C-0.261934 33.4853 -0.204323 35.3199 0.795454 37.5406C8.79868 55.333 16.0551 68.2696 24.3246 79.4883C30.1189 87.3384 35.9308 92.772 42.6129 96.5868C49.6528 100.614 57.5423 102.572 66.7314 102.572C67.773 102.572 68.8501 102.547 69.9361 102.496C75.2756 102.236 77.2566 100.303 77.507 95.1043C77.6262 92.4475 77.9168 89.661 79.2228 87.2847C80.0473 85.7875 80.8159 85.7875 81.0685 85.7875C81.5552 85.7875 82.1585 86.0115 82.8065 86.4313C83.9687 87.1899 84.9653 88.2061 85.7822 89.0939C86.5512 89.9373 87.3116 90.7893 88.0727 91.6416C89.7151 93.4812 91.4134 95.3831 93.1875 97.1869C97.0707 101.138 101.349 102.875 106.262 102.498H124.601C124.64 102.498 124.68 102.497 124.719 102.494C126.546 102.374 128.129 101.36 129.061 99.7132C130.216 97.6732 130.193 95.0707 128.999 92.7498C127.644 90.1255 125.887 87.8833 124.348 86.0373Z" fill="#141414"/>
</g>
<defs>
<clipPath id="clip0_22_919">
<rect width="130" height="130" fill="white"/>
</clipPath>
</defs>
</svg>
