<svg width="50" height="29" viewBox="0 0 50 29" fill="none" xmlns="http://www.w3.org/2000/svg">
<path d="M47.3697 22.4294C46.3028 21.1487 45.0904 20.001 43.918 18.8909C43.5011 18.4962 43.07 18.088 42.6545 17.6822C41.4615 16.5158 41.4181 16.0776 42.3626 14.7527C43.0161 13.8395 43.7089 12.925 44.379 12.0407C44.9867 11.2383 45.6152 10.4086 46.2176 9.57611L46.3412 9.40495C47.4925 7.81195 48.6832 6.16473 49.3168 4.17763C49.4814 3.65337 49.6542 2.88189 49.2591 2.23679C48.8643 1.59222 48.0985 1.39557 47.5567 1.30373C47.2887 1.25827 47.0226 1.25207 46.7757 1.25207L39.2361 1.24667L39.1738 1.24613C38.0338 1.24613 37.2655 1.78334 36.8253 2.88863C36.405 3.9447 35.9434 5.06928 35.4166 6.13857C34.3682 8.26783 33.0367 10.7203 31.11 12.7656L31.0286 12.8526C30.801 13.0971 30.5433 13.374 30.3549 13.374C30.326 13.374 30.2946 13.3685 30.259 13.3573C29.8599 13.2018 29.592 12.2357 29.6041 11.7863C29.6043 11.7801 29.6044 11.7739 29.6044 11.7677L29.5992 3.05345C29.5992 3.02324 29.597 2.9933 29.5931 2.96335C29.4013 1.54677 28.9764 0.66496 27.3712 0.350568C27.3285 0.342071 27.285 0.337891 27.2415 0.337891H19.4018C18.1246 0.337891 17.4208 0.857022 16.7592 1.63403C16.5807 1.84174 16.209 2.27415 16.3932 2.79867C16.5801 3.33102 17.1869 3.44486 17.3845 3.48181C18.3653 3.66848 18.9182 4.2684 19.0748 5.31664C19.3482 7.13691 19.3817 9.07977 19.1805 11.431C19.1244 12.0845 19.0134 12.5892 18.8305 13.0204C18.788 13.121 18.6374 13.4494 18.4838 13.4496C18.4349 13.4496 18.2937 13.4304 18.0365 13.2532C17.4284 12.8366 16.9834 12.242 16.4647 11.5076C14.7 9.01368 13.2189 6.26629 11.9363 3.10659C11.4606 1.94344 10.5722 1.29226 9.43355 1.27311C8.18245 1.25409 7.04816 1.24492 5.96633 1.24492C4.78429 1.24492 3.68844 1.25585 2.61834 1.2781C1.70228 1.29428 1.06864 1.56889 0.735226 2.0949C0.401277 2.62131 0.422992 3.31281 0.799831 4.14985C3.81643 10.8562 6.55155 15.7323 9.6685 19.9609C11.8525 22.9198 14.0431 24.9678 16.5618 26.4057C19.2153 27.9237 22.189 28.6618 25.6526 28.6618C26.0452 28.6618 26.4512 28.6522 26.8605 28.633C28.8731 28.535 29.6198 27.8065 29.7142 25.847C29.7591 24.8455 29.8686 23.7952 30.3609 22.8995C30.6717 22.3352 30.9614 22.3352 31.0566 22.3352C31.24 22.3352 31.4674 22.4197 31.7117 22.5779C32.1498 22.8638 32.5254 23.2468 32.8333 23.5815C33.1232 23.8994 33.4098 24.2205 33.6966 24.5418C34.3157 25.2352 34.9558 25.952 35.6245 26.6319C37.0882 28.1211 38.7006 28.776 40.5526 28.6339H47.4652C47.4799 28.6339 47.4947 28.6333 47.5094 28.6324C48.1982 28.5869 48.7947 28.2048 49.1461 27.5841C49.5813 26.8152 49.5726 25.8343 49.1226 24.9595C48.6121 23.9703 47.9499 23.1252 47.3697 22.4294Z" fill="#BEBEBE"/>
</svg>
