<svg width="43" height="32" viewBox="0 0 43 32" fill="none" xmlns="http://www.w3.org/2000/svg">
<path d="M37.6297 1.09879C37.6297 1.09879 32.4856 0.45166 21.438 0.45166C10.7488 0.45166 5.36838 1.09879 5.36838 1.09879C3.99414 1.0993 2.67637 1.64557 1.70483 2.61748C0.733279 3.58939 0.1875 4.90737 0.1875 6.2816V25.7225C0.187246 26.4031 0.321051 27.0771 0.581277 27.706C0.841502 28.3349 1.22305 28.9064 1.70414 29.3878C2.18523 29.8693 2.75644 30.2513 3.38515 30.512C4.01386 30.7727 4.68776 30.907 5.36838 30.9072C5.36838 30.9072 10.371 31.5505 21.438 31.5505C32.4992 31.5505 37.6297 30.9072 37.6297 30.9072C38.3106 30.9077 38.985 30.774 39.6141 30.5136C40.2433 30.2532 40.8149 29.8712 41.2963 29.3897C41.7777 28.9081 42.1594 28.3363 42.4196 27.707C42.6797 27.0778 42.8133 26.4034 42.8125 25.7225V6.27772C42.8125 5.59729 42.6784 4.92352 42.4179 4.29493C42.1574 3.66634 41.7756 3.09525 41.2943 2.61429C40.8129 2.13333 40.2416 1.75193 39.6128 1.4919C38.984 1.23186 38.3101 1.09828 37.6297 1.09879ZM15.8057 23.7017V8.30822L29.6278 16.0001L15.8057 23.7017Z" fill="#BEBEBE"/>
</svg>
