<svg width="120" height="88" viewBox="0 0 120 88" fill="none" xmlns="http://www.w3.org/2000/svg">
<path d="M104.747 2.66097C104.747 2.66097 90.4762 0.865723 59.828 0.865723C30.1741 0.865723 15.2478 2.66097 15.2478 2.66097C11.4354 2.6624 7.77962 4.17786 5.08436 6.87413C2.3891 9.5704 0.875001 13.2267 0.875001 17.0391V70.9718C0.874295 72.86 1.2455 74.7298 1.96741 76.4745C2.68933 78.2192 3.74782 79.8047 5.08245 81.1403C6.41709 82.4759 8.00172 83.5356 9.74589 84.2588C11.4901 84.982 13.3596 85.3546 15.2478 85.3553C15.2478 85.3553 29.126 87.1398 59.828 87.1398C90.5139 87.1398 104.747 85.3553 104.747 85.3553C106.636 85.3568 108.507 84.9856 110.252 84.2632C111.997 83.5408 113.583 82.4813 114.919 81.1453C116.254 79.8094 117.313 78.2231 118.035 76.4774C118.757 74.7318 119.127 72.8609 119.125 70.9718V17.0284C119.125 15.1407 118.753 13.2715 118.03 11.5277C117.308 9.78388 116.248 8.19955 114.913 6.86528C113.578 5.531 111.993 4.47294 110.248 3.75154C108.504 3.03014 106.635 2.65956 104.747 2.66097ZM44.2029 65.3657V22.6613L82.5481 44.0001L44.2029 65.3657Z" fill="#141414"/>
</svg>
