<svg width="39" height="32" viewBox="0 0 39 32" fill="none" xmlns="http://www.w3.org/2000/svg">
<path d="M25.3003 1C23.3539 1 21.5713 1.61537 20.0022 2.82889C19.2101 3.44143 18.4926 4.1911 17.86 5.06553C17.2277 4.1911 16.5099 3.44143 15.718 2.82889C14.149 1.61537 12.3664 1 10.42 1C7.81568 1 5.42056 2.04269 3.67502 3.93589C1.95007 5.80697 1 8.36314 1 11.1339C1 13.9856 2.06276 16.5961 4.34442 19.3493C6.38555 21.8121 9.31913 24.3122 12.7163 27.2072L12.7222 27.2123C13.8809 28.1997 15.1943 29.319 16.5565 30.5102C16.9171 30.8261 17.38 31 17.86 31C18.3398 31 18.8029 30.8261 19.1633 30.5107C20.5286 29.3167 21.844 28.1956 23.0048 27.2066C26.4014 24.3119 29.3347 21.8121 31.3759 19.3491" stroke="#525252" stroke-width="1.5" stroke-linecap="round"/>
<circle cx="31" cy="9" r="8" fill="#DA251C"/>
<path d="M31.008 13.096C30.352 13.096 29.764 12.928 29.244 12.592C28.732 12.256 28.324 11.768 28.02 11.128C27.724 10.488 27.576 9.712 27.576 8.8C27.576 7.888 27.724 7.112 28.02 6.472C28.324 5.832 28.732 5.344 29.244 5.008C29.764 4.672 30.352 4.504 31.008 4.504C31.656 4.504 32.24 4.672 32.76 5.008C33.28 5.344 33.688 5.832 33.984 6.472C34.28 7.112 34.428 7.888 34.428 8.8C34.428 9.712 34.28 10.488 33.984 11.128C33.688 11.768 33.28 12.256 32.76 12.592C32.24 12.928 31.656 13.096 31.008 13.096ZM31.008 12.028C31.448 12.028 31.832 11.908 32.16 11.668C32.496 11.428 32.756 11.068 32.94 10.588C33.132 10.108 33.228 9.512 33.228 8.8C33.228 8.088 33.132 7.492 32.94 7.012C32.756 6.532 32.496 6.172 32.16 5.932C31.832 5.692 31.448 5.572 31.008 5.572C30.568 5.572 30.18 5.692 29.844 5.932C29.508 6.172 29.244 6.532 29.052 7.012C28.868 7.492 28.776 8.088 28.776 8.8C28.776 9.512 28.868 10.108 29.052 10.588C29.244 11.068 29.508 11.428 29.844 11.668C30.18 11.908 30.568 12.028 31.008 12.028Z" fill="white"/>
</svg>
